<svg width="200" height="118" viewBox="0 0 200 118" fill="none" xmlns="http://www.w3.org/2000/svg">
<g clip-path="url(#clip0_138_4943)">
<path d="M112.506 6.34416C75.7687 -8.80683 31.7061 17.2422 21.5074 38.7292C-2.98166 90.3245 39.8144 114.137 58.6411 105.427C66.5007 101.79 72.9207 95.5812 79.1256 89.5401C88.3022 80.6056 100.926 75.3056 113.73 75.0112C123.699 74.7821 133.62 77.4573 143.561 76.6716C153.502 75.8859 162.282 62.1768 162.013 52.209C161.601 36.9952 151.901 22.5919 112.506 6.34416Z" fill="#F4F4F4"/>
<path d="M14.4109 73.382L14.0383 73.4227L18.6385 115.46L19.011 115.42L14.4109 73.382Z" fill="#292A2E"/>
<path d="M26.3251 91.7339L24.062 114.122L24.4349 114.16L26.698 91.7716L26.3251 91.7339Z" fill="#292A2E"/>
<path d="M30.2166 111.416H13.4243V116.866H30.2166V111.416Z" fill="#292A2E"/>
<path opacity="0.2" d="M30.2166 111.416H13.4243V116.866H30.2166V111.416Z" fill="white"/>
<path d="M40.3398 101.382C43.5208 97.1546 42.0043 90.646 36.9525 86.845C31.9007 83.044 25.2267 83.39 22.0457 87.6178C18.8646 91.8456 20.3812 98.3543 25.433 102.155C30.4847 105.956 37.1587 105.61 40.3398 101.382Z" fill="#0CBC8B"/>
<path opacity="0.2" d="M40.3398 101.382C43.5208 97.1546 42.0043 90.646 36.9525 86.845C31.9007 83.044 25.2267 83.39 22.0457 87.6178C18.8646 91.8456 20.3812 98.3543 25.433 102.155C30.4847 105.956 37.1587 105.61 40.3398 101.382Z" fill="white"/>
<path opacity="0.5" d="M40.3392 101.383C40.1257 101.668 39.8926 101.938 39.6416 102.191C36.1398 104.428 30.9713 104.076 26.8709 100.99C21.8197 97.19 20.3036 90.6816 23.485 86.4537C23.699 86.1693 23.9315 85.8993 24.1811 85.6454C27.6851 83.4066 32.8513 83.7603 36.9533 86.8446C42.0045 90.6464 43.5206 97.1548 40.3392 101.383Z" fill="white"/>
<path d="M16.905 85.3411C21.9095 81.478 23.2697 74.8528 19.9431 70.5433C16.6165 66.2337 9.86282 65.8717 4.85832 69.7347C-0.146178 73.5978 -1.50637 80.223 1.82024 84.5325C5.14685 88.8421 11.9005 89.2041 16.905 85.3411Z" fill="#0CBC8B"/>
<path opacity="0.2" d="M15.3197 84.2332C11.4441 87.2268 6.5186 87.6829 2.94826 85.7343C2.53512 85.3703 2.15771 84.9676 1.82117 84.5317C-1.50594 80.2235 -0.145941 73.5975 4.85823 69.7353C8.734 66.7436 13.6595 66.2856 17.2281 68.2327C17.6423 68.5967 18.0202 68.9999 18.3567 69.4368C21.684 73.7452 20.324 80.3711 15.3197 84.2332Z" fill="white"/>
<path d="M133.509 4.99231H34.0584C30.7606 4.99231 28.0872 7.66572 28.0872 10.9635V89.2254C28.0872 92.5232 30.7606 95.1966 34.0584 95.1966H133.509C136.807 95.1966 139.48 92.5232 139.48 89.2254V10.9635C139.48 7.66572 136.807 4.99231 133.509 4.99231Z" fill="white"/>
<path d="M133.509 95.384H34.0585C32.4256 95.3822 30.8602 94.7327 29.7056 93.5781C28.551 92.4235 27.9015 90.8581 27.8997 89.2252V10.9635C27.9013 9.33065 28.5507 7.76511 29.7053 6.61049C30.86 5.45588 32.4256 4.80652 34.0585 4.80493H133.509C135.142 4.80657 136.707 5.45595 137.862 6.61056C139.017 7.76517 139.666 9.33068 139.668 10.9635V89.2252C139.666 90.8581 139.017 92.4237 137.862 93.5783C136.708 94.733 135.142 95.3824 133.509 95.384V95.384ZM34.0585 5.17969C32.525 5.18128 31.0547 5.79115 29.9703 6.87549C28.886 7.95982 28.2761 9.43004 28.2744 10.9635V89.2252C28.276 90.7588 28.8859 92.229 29.9703 93.3134C31.0547 94.3978 32.5249 95.0077 34.0585 95.0093H133.509C135.043 95.0076 136.513 94.3977 137.597 93.3133C138.681 92.229 139.291 90.7587 139.293 89.2252V10.9635C139.291 9.43008 138.681 7.95988 137.597 6.87555C136.513 5.79122 135.043 5.18133 133.509 5.17969H34.0585Z" fill="#292A2E"/>
<path opacity="0.7" d="M130.75 21.2085H124.644C123.357 21.2085 122.313 22.2519 122.313 23.5389V29.6455C122.313 30.9325 123.357 31.9759 124.644 31.9759H130.75C132.037 31.9759 133.081 30.9325 133.081 29.6455V23.5389C133.081 22.2519 132.037 21.2085 130.75 21.2085Z" fill="#367CFF"/>
<path opacity="0.7" d="M130.727 34.5957H124.667C123.367 34.5957 122.313 35.6496 122.313 36.9496V43.0093C122.313 44.3093 123.367 45.3631 124.667 45.3631H130.727C132.027 45.3631 133.081 44.3093 133.081 43.0093V36.9496C133.081 35.6496 132.027 34.5957 130.727 34.5957Z" fill="#367CFF"/>
<path opacity="0.7" d="M130.727 49.7433H124.667C123.367 49.7433 122.313 50.7972 122.313 52.0972V58.1568C122.313 59.4568 123.367 60.5107 124.667 60.5107H130.727C132.027 60.5107 133.081 59.4568 133.081 58.1568V52.0972C133.081 50.7972 132.027 49.7433 130.727 49.7433Z" fill="#367CFF"/>
<path opacity="0.7" d="M130.727 64.3286H124.667C123.367 64.3286 122.313 65.3825 122.313 66.6825V72.7422C122.313 74.0422 123.367 75.096 124.667 75.096H130.727C132.027 75.096 133.081 74.0422 133.081 72.7422V66.6825C133.081 65.3825 132.027 64.3286 130.727 64.3286Z" fill="#367CFF"/>
<g opacity="0.2">
<path d="M86.8437 21.2085H80.7372C79.4501 21.2085 78.4067 22.2519 78.4067 23.5389V29.6455C78.4067 30.9325 79.4501 31.9759 80.7372 31.9759H86.8437C88.1308 31.9759 89.1742 30.9325 89.1742 29.6455V23.5389C89.1742 22.2519 88.1308 21.2085 86.8437 21.2085Z" fill="#367CFF"/>
<path d="M72.2082 21.2085H66.1017C64.8146 21.2085 63.7712 22.2519 63.7712 23.5389V29.6455C63.7712 30.9325 64.8146 31.9759 66.1017 31.9759H72.2082C73.4953 31.9759 74.5387 30.9325 74.5387 29.6455V23.5389C74.5387 22.2519 73.4953 21.2085 72.2082 21.2085Z" fill="#367CFF"/>
<path d="M101.479 21.2085H95.3724C94.0854 21.2085 93.042 22.2519 93.042 23.5389V29.6455C93.042 30.9325 94.0854 31.9759 95.3724 31.9759H101.479C102.766 31.9759 103.809 30.9325 103.809 29.6455V23.5389C103.809 22.2519 102.766 21.2085 101.479 21.2085Z" fill="#367CFF"/>
<path d="M116.114 21.2085H110.008C108.721 21.2085 107.677 22.2519 107.677 23.5389V29.6455C107.677 30.9325 108.721 31.9759 110.008 31.9759H116.114C117.402 31.9759 118.445 30.9325 118.445 29.6455V23.5389C118.445 22.2519 117.402 21.2085 116.114 21.2085Z" fill="#367CFF"/>
<path d="M86.8203 34.5957H80.7606C79.4606 34.5957 78.4067 35.6496 78.4067 36.9496V43.0093C78.4067 44.3093 79.4606 45.3631 80.7606 45.3631H86.8203C88.1203 45.3631 89.1742 44.3093 89.1742 43.0093V36.9496C89.1742 35.6496 88.1203 34.5957 86.8203 34.5957Z" fill="#367CFF"/>
<path d="M101.456 34.5957H95.3959C94.0959 34.5957 93.042 35.6496 93.042 36.9496V43.0093C93.042 44.3093 94.0959 45.3631 95.3959 45.3631H101.456C102.756 45.3631 103.809 44.3093 103.809 43.0093V36.9496C103.809 35.6496 102.756 34.5957 101.456 34.5957Z" fill="#367CFF"/>
<path d="M116.091 34.5957H110.031C108.731 34.5957 107.677 35.6496 107.677 36.9496V43.0093C107.677 44.3093 108.731 45.3631 110.031 45.3631H116.091C117.391 45.3631 118.445 44.3093 118.445 43.0093V36.9496C118.445 35.6496 117.391 34.5957 116.091 34.5957Z" fill="#367CFF"/>
<path d="M42.914 34.5957H36.8544C35.5543 34.5957 34.5005 35.6496 34.5005 36.9496V43.0093C34.5005 44.3093 35.5543 45.3631 36.8544 45.3631H42.914C44.214 45.3631 45.2679 44.3093 45.2679 43.0093V36.9496C45.2679 35.6496 44.214 34.5957 42.914 34.5957Z" fill="#367CFF"/>
<path d="M57.5495 34.5957H51.4899C50.1899 34.5957 49.136 35.6496 49.136 36.9496V43.0093C49.136 44.3093 50.1899 45.3631 51.4899 45.3631H57.5495C58.8495 45.3631 59.9034 44.3093 59.9034 43.0093V36.9496C59.9034 35.6496 58.8495 34.5957 57.5495 34.5957Z" fill="#367CFF"/>
<path d="M72.1848 34.5957H66.1251C64.8251 34.5957 63.7712 35.6496 63.7712 36.9496V43.0093C63.7712 44.3093 64.8251 45.3631 66.1251 45.3631H72.1848C73.4848 45.3631 74.5387 44.3093 74.5387 43.0093V36.9496C74.5387 35.6496 73.4848 34.5957 72.1848 34.5957Z" fill="#367CFF"/>
<path d="M86.8203 49.7433H80.7606C79.4606 49.7433 78.4067 50.7972 78.4067 52.0972V58.1568C78.4067 59.4568 79.4606 60.5107 80.7606 60.5107H86.8203C88.1203 60.5107 89.1742 59.4568 89.1742 58.1568V52.0972C89.1742 50.7972 88.1203 49.7433 86.8203 49.7433Z" fill="#367CFF"/>
<path d="M101.456 49.7433H95.3959C94.0959 49.7433 93.042 50.7972 93.042 52.0972V58.1568C93.042 59.4568 94.0959 60.5107 95.3959 60.5107H101.456C102.756 60.5107 103.809 59.4568 103.809 58.1568V52.0972C103.809 50.7972 102.756 49.7433 101.456 49.7433Z" fill="#367CFF"/>
<path d="M116.091 49.7433H110.031C108.731 49.7433 107.677 50.7972 107.677 52.0972V58.1568C107.677 59.4568 108.731 60.5107 110.031 60.5107H116.091C117.391 60.5107 118.445 59.4568 118.445 58.1568V52.0972C118.445 50.7972 117.391 49.7433 116.091 49.7433Z" fill="#367CFF"/>
<path d="M42.914 49.7433H36.8544C35.5543 49.7433 34.5005 50.7972 34.5005 52.0972V58.1568C34.5005 59.4568 35.5543 60.5107 36.8544 60.5107H42.914C44.214 60.5107 45.2679 59.4568 45.2679 58.1568V52.0972C45.2679 50.7972 44.214 49.7433 42.914 49.7433Z" fill="#367CFF"/>
<path d="M57.5495 49.7433H51.4899C50.1899 49.7433 49.136 50.7972 49.136 52.0972V58.1568C49.136 59.4568 50.1899 60.5107 51.4899 60.5107H57.5495C58.8495 60.5107 59.9034 59.4568 59.9034 58.1568V52.0972C59.9034 50.7972 58.8495 49.7433 57.5495 49.7433Z" fill="#367CFF"/>
<path d="M72.1848 49.7433H66.1251C64.8251 49.7433 63.7712 50.7972 63.7712 52.0972V58.1568C63.7712 59.4568 64.8251 60.5107 66.1251 60.5107H72.1848C73.4848 60.5107 74.5387 59.4568 74.5387 58.1568V52.0972C74.5387 50.7972 73.4848 49.7433 72.1848 49.7433Z" fill="#367CFF"/>
<path d="M86.8203 64.3286H80.7606C79.4606 64.3286 78.4067 65.3825 78.4067 66.6825V72.7422C78.4067 74.0422 79.4606 75.096 80.7606 75.096H86.8203C88.1203 75.096 89.1742 74.0422 89.1742 72.7422V66.6825C89.1742 65.3825 88.1203 64.3286 86.8203 64.3286Z" fill="#367CFF"/>
<path d="M101.456 64.3286H95.3959C94.0959 64.3286 93.042 65.3825 93.042 66.6825V72.7422C93.042 74.0422 94.0959 75.096 95.3959 75.096H101.456C102.756 75.096 103.809 74.0422 103.809 72.7422V66.6825C103.809 65.3825 102.756 64.3286 101.456 64.3286Z" fill="#367CFF"/>
<path d="M116.091 64.3286H110.031C108.731 64.3286 107.677 65.3825 107.677 66.6825V72.7422C107.677 74.0422 108.731 75.096 110.031 75.096H116.091C117.391 75.096 118.445 74.0422 118.445 72.7422V66.6825C118.445 65.3825 117.391 64.3286 116.091 64.3286Z" fill="#367CFF"/>
<path d="M42.914 64.3286H36.8544C35.5543 64.3286 34.5005 65.3825 34.5005 66.6825V72.7422C34.5005 74.0422 35.5543 75.096 36.8544 75.096H42.914C44.214 75.096 45.2679 74.0422 45.2679 72.7422V66.6825C45.2679 65.3825 44.214 64.3286 42.914 64.3286Z" fill="#367CFF"/>
<path d="M57.5495 64.3286H51.4899C50.1899 64.3286 49.136 65.3825 49.136 66.6825V72.7422C49.136 74.0422 50.1899 75.096 51.4899 75.096H57.5495C58.8495 75.096 59.9034 74.0422 59.9034 72.7422V66.6825C59.9034 65.3825 58.8495 64.3286 57.5495 64.3286Z" fill="#367CFF"/>
<path d="M72.1848 64.3286H66.1251C64.8251 64.3286 63.7712 65.3825 63.7712 66.6825V72.7422C63.7712 74.0422 64.8251 75.096 66.1251 75.096H72.1848C73.4848 75.096 74.5387 74.0422 74.5387 72.7422V66.6825C74.5387 65.3825 73.4848 64.3286 72.1848 64.3286Z" fill="#367CFF"/>
<path d="M86.8203 77.7524H80.7606C79.4606 77.7524 78.4067 78.8063 78.4067 80.1063V86.166C78.4067 87.466 79.4606 88.5199 80.7606 88.5199H86.8203C88.1203 88.5199 89.1742 87.466 89.1742 86.166V80.1063C89.1742 78.8063 88.1203 77.7524 86.8203 77.7524Z" fill="#367CFF"/>
<path d="M42.914 77.7524H36.8544C35.5543 77.7524 34.5005 78.8063 34.5005 80.1063V86.166C34.5005 87.466 35.5543 88.5199 36.8544 88.5199H42.914C44.214 88.5199 45.2679 87.466 45.2679 86.166V80.1063C45.2679 78.8063 44.214 77.7524 42.914 77.7524Z" fill="#367CFF"/>
<path d="M57.5495 77.7524H51.4899C50.1899 77.7524 49.136 78.8063 49.136 80.1063V86.166C49.136 87.466 50.1899 88.5199 51.4899 88.5199H57.5495C58.8495 88.5199 59.9034 87.466 59.9034 86.166V80.1063C59.9034 78.8063 58.8495 77.7524 57.5495 77.7524Z" fill="#367CFF"/>
<path d="M72.1848 77.7524H66.1251C64.8251 77.7524 63.7712 78.8063 63.7712 80.1063V86.166C63.7712 87.466 64.8251 88.5199 66.1251 88.5199H72.1848C73.4848 88.5199 74.5387 87.466 74.5387 86.166V80.1063C74.5387 78.8063 73.4848 77.7524 72.1848 77.7524Z" fill="#367CFF"/>
</g>
<path d="M139.48 10.9641V14.7921H28.0881V10.9641C28.0879 10.1799 28.2422 9.40327 28.5422 8.67866C28.8421 7.95404 29.2819 7.29562 29.8364 6.741C30.3908 6.18637 31.0491 5.74641 31.7737 5.44624C32.4982 5.14607 33.2748 4.99158 34.059 4.99158H133.509C135.093 4.99188 136.612 5.62128 137.732 6.74134C138.851 7.8614 139.48 9.38037 139.48 10.9641V10.9641Z" fill="#292A2E"/>
<path d="M48.3167 4.80493C48.3166 3.8546 48.5984 2.9256 49.1263 2.13541C49.6543 1.34522 50.4047 0.729323 51.2826 0.365605C52.1606 0.00188768 53.1267 -0.0933157 54.0588 0.0920342C54.9909 0.277384 55.847 0.734962 56.5191 1.40691C57.1911 2.07885 57.6488 2.93498 57.8342 3.86704C58.0197 4.79909 57.9246 5.76521 57.561 6.64323C57.1974 7.52124 56.5816 8.27171 55.7914 8.79975C55.0013 9.32778 54.0723 9.60965 53.122 9.60973C53.0144 9.60973 52.9111 9.56697 52.835 9.49085C52.7589 9.41474 52.7161 9.3115 52.7161 9.20386C52.7161 9.09622 52.7589 8.99299 52.835 8.91687C52.9111 8.84076 53.0144 8.798 53.122 8.798C53.9118 8.798 54.6839 8.56379 55.3406 8.125C55.9973 7.68621 56.5091 7.06253 56.8113 6.33285C57.1135 5.60317 57.1926 4.80025 57.0385 4.02563C56.8844 3.25101 56.5041 2.53948 55.9456 1.98102C55.3871 1.42256 54.6756 1.04225 53.9009 0.888194C53.1263 0.734135 52.3234 0.813241 51.5937 1.11551C50.8641 1.41778 50.2404 1.92963 49.8016 2.58635C49.3629 3.24306 49.1287 4.01513 49.1288 4.80493" fill="#E5E5E5"/>
<path d="M72.8462 4.80493C72.8462 3.85459 73.1279 2.92557 73.6559 2.13537C74.1838 1.34517 74.9343 0.729276 75.8123 0.365569C76.6903 0.00186284 77.6564 -0.0933186 78.5885 0.0920616C79.5206 0.277442 80.3767 0.735057 81.0487 1.40704C81.7208 2.07902 82.1784 2.93519 82.3638 3.86727C82.5492 4.79935 82.4541 5.76548 82.0904 6.64349C81.7267 7.52149 81.1109 8.27194 80.3207 8.79993C79.5305 9.32792 78.6015 9.60973 77.6512 9.60973C77.5435 9.60973 77.4403 9.56697 77.3642 9.49085C77.2881 9.41474 77.2453 9.3115 77.2453 9.20386C77.2453 9.09622 77.2881 8.99299 77.3642 8.91687C77.4403 8.84076 77.5435 8.798 77.6512 8.798C78.441 8.79818 79.2132 8.56414 79.87 8.12546C80.5268 7.68677 81.0388 7.06317 81.3411 6.3335C81.6435 5.60383 81.7227 4.80088 81.5687 4.0262C81.4147 3.25152 81.0345 2.5399 80.476 1.98135C79.9176 1.4228 79.206 1.0424 78.4314 0.888263C77.6567 0.734128 76.8538 0.813179 76.124 1.11542C75.3943 1.41766 74.7706 1.92952 74.3318 2.58625C73.893 3.24298 73.6588 4.01509 73.6589 4.80493" fill="#E5E5E5"/>
<path d="M97.376 4.80493C97.3759 3.85459 97.6577 2.92557 98.1857 2.13537C98.7136 1.34517 99.4641 0.729276 100.342 0.365569C101.22 0.00186284 102.186 -0.0933186 103.118 0.0920616C104.05 0.277442 104.907 0.735057 105.579 1.40704C106.251 2.07902 106.708 2.93519 106.894 3.86727C107.079 4.79935 106.984 5.76548 106.62 6.64349C106.257 7.52149 105.641 8.27194 104.85 8.79993C104.06 9.32792 103.131 9.60973 102.181 9.60973C102.073 9.60973 101.97 9.56697 101.894 9.49085C101.818 9.41474 101.775 9.3115 101.775 9.20386C101.775 9.09622 101.818 8.99299 101.894 8.91687C101.97 8.84076 102.073 8.798 102.181 8.798C102.971 8.79785 103.743 8.56352 104.399 8.12464C105.056 7.68575 105.568 7.06203 105.87 6.33233C106.172 5.60264 106.251 4.79974 106.097 4.02517C105.942 3.2506 105.562 2.53914 105.004 1.98075C104.445 1.42237 103.733 1.04214 102.959 0.88814C102.184 0.734141 101.381 0.813291 100.652 1.11558C99.9221 1.41787 99.2985 1.92973 98.8598 2.58642C98.4211 3.24312 98.1869 4.01516 98.187 4.80493" fill="#E5E5E5"/>
<path d="M109.641 4.80493C109.641 3.85459 109.922 2.92557 110.45 2.13537C110.978 1.34517 111.729 0.729276 112.607 0.365569C113.485 0.00186284 114.451 -0.0933186 115.383 0.0920616C116.315 0.277442 117.171 0.735057 117.843 1.40704C118.515 2.07902 118.973 2.93519 119.158 3.86727C119.344 4.79935 119.249 5.76548 118.885 6.64349C118.521 7.52149 117.905 8.27194 117.115 8.79993C116.325 9.32792 115.396 9.60973 114.446 9.60973C114.338 9.60973 114.235 9.56697 114.159 9.49085C114.083 9.41474 114.04 9.3115 114.04 9.20386C114.04 9.09622 114.083 8.99299 114.159 8.91687C114.235 8.84076 114.338 8.798 114.446 8.798C115.235 8.798 116.007 8.56379 116.664 8.125C117.321 7.68621 117.833 7.06253 118.135 6.33285C118.437 5.60317 118.516 4.80025 118.362 4.02563C118.208 3.25101 117.828 2.53948 117.269 1.98102C116.711 1.42256 115.999 1.04225 115.225 0.888194C114.45 0.734135 113.647 0.813241 112.917 1.11551C112.188 1.41778 111.564 1.92963 111.125 2.58635C110.686 3.24306 110.452 4.01513 110.452 4.80493" fill="#E5E5E5"/>
<path d="M36.0518 4.80493C36.0517 3.85459 36.3335 2.92557 36.8615 2.13537C37.3894 1.34517 38.1398 0.729276 39.0178 0.365569C39.8958 0.00186284 40.8619 -0.0933186 41.794 0.0920616C42.7261 0.277442 43.5823 0.735057 44.2543 1.40704C44.9263 2.07902 45.384 2.93519 45.5694 3.86727C45.7548 4.79935 45.6597 5.76548 45.296 6.64349C44.9323 7.52149 44.3165 8.27194 43.5263 8.79993C42.7361 9.32792 41.8071 9.60973 40.8567 9.60973C40.7491 9.60973 40.6459 9.56697 40.5698 9.49085C40.4936 9.41474 40.4509 9.3115 40.4509 9.20386C40.4509 9.09622 40.4936 8.99299 40.5698 8.91687C40.6459 8.84076 40.7491 8.798 40.8567 8.798C41.6465 8.798 42.4186 8.56379 43.0753 8.125C43.732 7.68621 44.2438 7.06253 44.546 6.33285C44.8483 5.60317 44.9274 4.80025 44.7733 4.02563C44.6192 3.25101 44.2388 2.53948 43.6803 1.98102C43.1219 1.42256 42.4103 1.04225 41.6357 0.888194C40.861 0.734135 40.0581 0.813241 39.3285 1.11551C38.5988 1.41778 37.9751 1.92963 37.5364 2.58635C37.0976 3.24306 36.8635 4.01513 36.8635 4.80493" fill="#E5E5E5"/>
<path d="M60.5815 4.80493C60.5815 3.85459 60.8633 2.92557 61.3912 2.13537C61.9192 1.34517 62.6696 0.729276 63.5476 0.365569C64.4256 0.00186284 65.3917 -0.0933186 66.3238 0.0920616C67.2559 0.277442 68.1121 0.735057 68.7841 1.40704C69.4561 2.07902 69.9138 2.93519 70.0992 3.86727C70.2846 4.79935 70.1894 5.76548 69.8258 6.64349C69.4621 7.52149 68.8462 8.27194 68.0561 8.79993C67.2659 9.32792 66.3369 9.60973 65.3865 9.60973C65.2789 9.60973 65.1757 9.56697 65.0995 9.49085C65.0234 9.41474 64.9807 9.3115 64.9807 9.20386C64.9807 9.09622 65.0234 8.99299 65.0995 8.91687C65.1757 8.84076 65.2789 8.798 65.3865 8.798C66.1763 8.798 66.9484 8.56379 67.6051 8.125C68.2618 7.68621 68.7736 7.06253 69.0758 6.33285C69.3781 5.60317 69.4571 4.80025 69.303 4.02563C69.149 3.25101 68.7686 2.53948 68.2101 1.98102C67.6516 1.42256 66.9401 1.04225 66.1655 0.888194C65.3908 0.734135 64.5879 0.813241 63.8582 1.11551C63.1286 1.41778 62.5049 1.92963 62.0662 2.58635C61.6274 3.24306 61.3932 4.01513 61.3933 4.80493" fill="#E5E5E5"/>
<path d="M85.1111 4.80493C85.111 3.85458 85.3928 2.92556 85.9208 2.13535C86.4488 1.34515 87.1992 0.729253 88.0772 0.365552C88.9552 0.0018504 89.9213 -0.0933201 90.8534 0.0920753C91.7855 0.277471 92.6417 0.735105 93.3137 1.40711C93.9857 2.07911 94.4433 2.93529 94.6287 3.86738C94.8141 4.79948 94.719 5.76561 94.3553 6.64362C93.9916 7.52162 93.3757 8.27205 92.5855 8.80002C91.7953 9.32798 90.8662 9.60976 89.9159 9.60973C89.8082 9.60973 89.705 9.56697 89.6289 9.49085C89.5528 9.41474 89.51 9.3115 89.51 9.20386C89.51 9.09622 89.5528 8.99299 89.6289 8.91687C89.705 8.84076 89.8082 8.798 89.9159 8.798C90.7057 8.798 91.4777 8.56379 92.1344 8.125C92.7911 7.68621 93.303 7.06253 93.6052 6.33285C93.9074 5.60317 93.9865 4.80025 93.8324 4.02563C93.6783 3.25101 93.298 2.53948 92.7395 1.98102C92.181 1.42256 91.4694 1.04225 90.6948 0.888194C89.9202 0.734135 89.1173 0.813241 88.3876 1.11551C87.6579 1.41778 87.0343 1.92963 86.5955 2.58635C86.1568 3.24306 85.9226 4.01513 85.9226 4.80493" fill="#E5E5E5"/>
<path d="M121.906 4.80493C121.906 3.85458 122.188 2.92556 122.715 2.13535C123.243 1.34515 123.994 0.729253 124.872 0.365552C125.75 0.0018504 126.716 -0.0933201 127.648 0.0920753C128.58 0.277471 129.436 0.735105 130.108 1.40711C130.78 2.07911 131.238 2.93529 131.423 3.86738C131.609 4.79948 131.514 5.76561 131.15 6.64362C130.786 7.52162 130.17 8.27205 129.38 8.80002C128.59 9.32798 127.661 9.60976 126.711 9.60973C126.603 9.60973 126.5 9.56697 126.424 9.49085C126.347 9.41474 126.305 9.3115 126.305 9.20386C126.305 9.09622 126.347 8.99299 126.424 8.91687C126.5 8.84076 126.603 8.798 126.711 8.798C127.5 8.79803 128.272 8.56386 128.929 8.12509C129.586 7.68632 130.098 7.06266 130.4 6.33298C130.702 5.6033 130.781 4.80038 130.627 4.02574C130.473 3.25111 130.093 2.53956 129.534 1.98109C128.976 1.42261 128.264 1.04228 127.49 0.888208C126.715 0.734134 125.912 0.813229 125.183 1.11549C124.453 1.41776 123.829 1.92961 123.39 2.58633C122.952 3.24304 122.717 4.01512 122.717 4.80493" fill="#E5E5E5"/>
<path d="M52.4161 72.6728C52.399 72.6728 52.382 72.6728 52.3647 72.6703C52.2862 72.6632 52.2099 72.6398 52.1409 72.6016C52.0719 72.5634 52.0115 72.5113 51.9638 72.4485L50.2487 70.1924C50.2035 70.133 50.1705 70.0653 50.1515 69.9932C50.1325 69.921 50.1279 69.8458 50.138 69.7719C50.1481 69.6979 50.1726 69.6267 50.2102 69.5623C50.2478 69.4978 50.2978 69.4414 50.3572 69.3963C50.4166 69.3511 50.4843 69.3181 50.5564 69.2991C50.6286 69.2801 50.7038 69.2755 50.7777 69.2856C50.8516 69.2957 50.9229 69.3202 50.9873 69.3578C51.0518 69.3954 51.1082 69.4453 51.1533 69.5047L52.4922 71.2661L57.6307 66.576C57.742 66.4744 57.8891 66.4212 58.0396 66.4281C58.1901 66.435 58.3317 66.5013 58.4333 66.6126C58.5349 66.7239 58.5881 66.871 58.5812 67.0215C58.5744 67.1721 58.508 67.3137 58.3967 67.4153L52.7991 72.5244C52.6944 72.6199 52.5578 72.6728 52.4161 72.6728Z" fill="#367CFF"/>
<path d="M72.0489 78.9437H66.2611C65.5439 78.9437 64.9624 79.5252 64.9624 80.2425V86.0302C64.9624 86.7475 65.5439 87.329 66.2611 87.329H72.0489C72.7662 87.329 73.3477 86.7475 73.3477 86.0302V80.2425C73.3477 79.5252 72.7662 78.9437 72.0489 78.9437Z" fill="#367CFF"/>
<path d="M109.739 30.5039C109.627 30.5038 109.519 30.471 109.426 30.4096C109.333 30.3481 109.26 30.2607 109.216 30.1583C109.173 30.0558 109.16 29.9428 109.18 29.8332C109.2 29.7237 109.252 29.6224 109.329 29.5421L115.932 22.6703C115.983 22.6151 116.045 22.5707 116.114 22.5397C116.182 22.5087 116.257 22.4916 116.332 22.4895C116.407 22.4874 116.482 22.5003 116.552 22.5274C116.623 22.5546 116.687 22.5954 116.741 22.6476C116.796 22.6998 116.839 22.7623 116.869 22.8315C116.899 22.9006 116.915 22.975 116.916 23.0504C116.917 23.1257 116.903 23.2005 116.874 23.2704C116.846 23.3402 116.804 23.4038 116.751 23.4573L110.149 30.3293C110.096 30.3846 110.032 30.4286 109.962 30.4586C109.891 30.4886 109.815 30.504 109.739 30.5039Z" fill="#0A0A0A"/>
<path d="M116.476 30.3695C116.33 30.3696 116.189 30.3128 116.083 30.211L109.211 23.6079C109.156 23.5565 109.112 23.4947 109.08 23.4261C109.049 23.3574 109.032 23.2833 109.03 23.2079C109.028 23.1326 109.041 23.0576 109.068 22.9873C109.095 22.917 109.136 22.8528 109.188 22.7985C109.241 22.7441 109.303 22.7007 109.372 22.6708C109.441 22.6408 109.516 22.6249 109.591 22.6239C109.666 22.623 109.741 22.6371 109.811 22.6653C109.881 22.6936 109.945 22.7354 109.998 22.7885L116.87 29.3916C116.952 29.4701 117.008 29.5713 117.032 29.6821C117.055 29.7928 117.045 29.9082 117.003 30.0133C116.961 30.1184 116.888 30.2085 116.794 30.272C116.7 30.3354 116.59 30.3694 116.476 30.3695V30.3695Z" fill="#0A0A0A"/>
<path d="M178.002 39.9033C178.002 39.9033 178.511 45.9318 179.908 48.0974C183.929 54.3321 185.187 61.404 181.338 65.1782C177.489 68.9524 152.521 69.4469 150.478 60.9584C148.758 53.8121 152.162 52.9801 152.889 47.0469C153.218 44.3622 154.153 38.7284 154.153 38.7284" fill="#0A0A0A"/>
<path d="M156.697 59.5041C156.74 59.4985 157.219 67.4359 166.44 66.7439C172.824 66.2657 175.1 59.4923 175.247 59.4923C174.559 59.3462 173.4 59.1335 173.094 58.9703C172.089 58.4301 170.845 57.8681 170.521 55.916C170.333 54.7917 170.651 49.035 170.553 47.8961L160.753 50.0843C160.89 52.4886 161.848 58.062 158.49 59.0484C157.931 59.212 157.329 59.3619 156.697 59.5041Z" fill="#E98862"/>
<path opacity="0.5" d="M160.616 56.7707C160.77 56.276 160.868 55.7661 160.911 55.2499C161.019 54.0721 160.997 52.886 160.847 51.7128C162.838 51.4438 164.714 50.6218 166.262 49.34C166.444 50.0119 167.445 52.9482 167.168 53.5867C166.644 54.794 164.183 56.7707 160.616 56.7707Z" fill="#0C0C0C"/>
<path d="M162.012 54.2969C165.881 54.6022 170.852 52.9686 171.796 47.8063L172.648 43.1482C173.592 37.9859 171.646 33.3051 166.785 32.4162C161.925 31.5273 157.526 35.0478 156.582 40.2101L156.205 42.2713C155.843 44.253 155.108 53.7522 162.012 54.2969Z" fill="#E98862"/>
<path opacity="0.5" d="M160.432 47.157L160.423 47.1557C160.226 47.1181 160.031 47.0698 159.84 47.0108C159.553 46.9207 159.179 46.7711 159.226 46.5129C159.279 46.2189 160.666 43.1926 160.824 42.8483C160.838 42.8191 160.863 42.7965 160.894 42.7856C160.924 42.7746 160.958 42.7761 160.988 42.7897C161.017 42.8033 161.04 42.828 161.052 42.8584C161.064 42.8888 161.063 42.9226 161.05 42.9525C160.459 44.2411 159.507 46.3598 159.471 46.5579C159.504 46.6494 159.979 46.8202 160.467 46.9102C160.499 46.9162 160.527 46.9342 160.546 46.9603C160.564 46.9864 160.572 47.0187 160.567 47.0505C160.563 47.0822 160.546 47.111 160.521 47.1308C160.496 47.1506 160.464 47.16 160.432 47.157V47.157Z" fill="#0C0C0C"/>
<path opacity="0.5" d="M161.165 49.3786C160.373 49.2806 159.614 48.9978 158.951 48.553C158.927 48.5339 158.91 48.5063 158.905 48.4756C158.9 48.4449 158.906 48.4134 158.923 48.3872C158.94 48.361 158.966 48.342 158.996 48.334C159.026 48.326 159.058 48.3296 159.085 48.3439C160.52 49.2664 161.942 49.4083 163.195 48.7543C163.22 48.7404 163.246 48.7279 163.273 48.7168C163.304 48.7068 163.337 48.7091 163.366 48.7232C163.395 48.7373 163.418 48.7621 163.429 48.7924C163.44 48.8226 163.439 48.8561 163.426 48.8856C163.413 48.9152 163.389 48.9386 163.359 48.9509C163.349 48.955 163.333 48.9638 163.31 48.9758C162.651 49.3204 161.905 49.4607 161.165 49.3786V49.3786Z" fill="#0C0C0C"/>
<path d="M176.542 44.7463L172.185 43.975C168.88 42.6617 167.848 36.962 167.848 36.962C167.848 36.962 163.869 40.8887 154.153 38.729C154.153 38.729 156.015 25.1865 170.373 29.0326C175.002 30.2729 178.348 34.9098 177.973 41.1374C177.711 45.5005 176.542 44.7463 176.542 44.7463Z" fill="#0A0A0A"/>
<path d="M171.206 49.3236C172.683 49.5938 174.17 48.2325 174.44 46.7554C174.71 45.2783 173.662 44.2445 172.185 43.9745L171.243 44.8252L169.936 49.0915L171.206 49.3236Z" fill="#E98862"/>
<path d="M159.737 40.474C159.365 40.2201 158.931 40.0695 158.481 40.0376C158.255 40.02 158.027 40.0366 157.806 40.0869C157.583 40.1364 157.367 40.2138 157.164 40.3172L157.157 40.3204C157.135 40.3315 157.108 40.3332 157.084 40.325C157.06 40.3169 157.041 40.2995 157.03 40.2768C157.018 40.2541 157.017 40.2279 157.025 40.2039C157.033 40.18 157.05 40.1603 157.073 40.1491C157.289 40.0302 157.519 39.9391 157.757 39.8778C157.997 39.8148 158.246 39.7883 158.494 39.7993C158.996 39.8181 159.484 39.9716 159.907 40.2436C159.939 40.2644 159.961 40.2969 159.969 40.3341C159.977 40.3713 159.969 40.41 159.949 40.4418C159.928 40.4736 159.895 40.4958 159.858 40.5036C159.821 40.5113 159.782 40.504 159.75 40.4832L159.747 40.4808L159.737 40.474Z" fill="#0C0C0C"/>
<path d="M163.714 40.9522C164.205 40.8452 164.717 40.8722 165.194 41.0303C165.43 41.1069 165.654 41.2185 165.857 41.3614C166.059 41.5023 166.242 41.6682 166.403 41.855C166.42 41.8734 166.429 41.8978 166.428 41.9228C166.427 41.9479 166.416 41.9716 166.398 41.9888C166.38 42.0061 166.356 42.0154 166.33 42.0149C166.305 42.0144 166.282 42.0041 166.264 41.9861L166.259 41.9809C166.104 41.8128 165.929 41.6647 165.738 41.5404C165.548 41.4159 165.341 41.3208 165.123 41.2582C164.69 41.1306 164.231 41.1201 163.792 41.2276L163.781 41.2304C163.763 41.2357 163.744 41.2372 163.725 41.235C163.706 41.2327 163.688 41.2266 163.671 41.2172C163.655 41.2077 163.64 41.1951 163.628 41.1799C163.617 41.1648 163.608 41.1475 163.604 41.129C163.599 41.1105 163.598 41.0913 163.6 41.0724C163.603 41.0535 163.61 41.0354 163.619 41.019C163.629 41.0026 163.642 40.9884 163.658 40.9772C163.673 40.9659 163.691 40.9579 163.709 40.9535L163.714 40.9522Z" fill="#0C0C0C"/>
<path opacity="0.52" d="M161.004 50.5504C160.86 50.535 160.718 50.5073 160.579 50.4677C160.547 50.4588 160.52 50.4376 160.504 50.4087C160.488 50.3799 160.484 50.3458 160.493 50.314C160.502 50.2821 160.523 50.2552 160.552 50.239C160.581 50.2228 160.615 50.2187 160.647 50.2277C161.483 50.4627 161.955 50.1417 161.975 50.1278C162.002 50.1101 162.035 50.1036 162.067 50.1096C162.098 50.1156 162.126 50.1336 162.145 50.1599C162.164 50.1862 162.172 50.2188 162.167 50.2507C162.162 50.2826 162.145 50.3114 162.119 50.3311C161.784 50.5309 161.39 50.6084 161.004 50.5504V50.5504Z" fill="#0C0C0C"/>
<path d="M172.18 43.9031C169.242 42.8686 168.238 40.8698 167.913 39.3753C167.702 38.3783 167.702 37.3483 167.913 36.3513L168.004 36.3746C167.797 37.3586 167.797 38.375 168.006 39.3588C168.326 40.8288 169.316 42.7953 172.212 43.8148L172.18 43.9031Z" fill="#0C0C0C"/>
<path opacity="0.1" d="M165.587 46.7834C165.635 46.3162 165.157 45.885 164.52 45.8205C163.883 45.7559 163.328 46.0823 163.28 46.5495C163.233 47.0168 163.711 47.4479 164.348 47.5124C164.985 47.577 165.54 47.2506 165.587 46.7834Z" fill="#0C0C0C"/>
<path opacity="0.1" d="M157.598 45.7675C157.549 46.2341 156.995 46.5601 156.357 46.4964C156.247 46.4852 156.139 46.4626 156.033 46.429C155.994 45.8743 155.983 45.3403 155.99 44.8456C156.166 44.7984 156.349 44.7844 156.53 44.8044C157.167 44.8681 157.645 45.2991 157.598 45.7675Z" fill="#0C0C0C"/>
<path d="M185.663 106.665L187.332 116.838H145.715L147.271 106.604L185.663 106.665Z" fill="#262626"/>
<path d="M166.652 64.7714C173.04 64.4703 173.309 59.0481 173.309 59.0481C173.309 59.0481 176.474 59.2527 178.578 59.5373C182.023 60.0035 184.301 61.0234 186.111 62.8318C187.793 64.5143 188.811 66.4825 187.727 78.1033C186.943 86.5178 185.664 106.665 185.664 106.665L147.272 106.603C147.272 106.603 145.563 80.7669 145.241 76.9786C144.626 69.7478 143.655 59.5562 145.716 59.0475C148.117 58.4548 155.956 59.4292 158.491 59.0475C158.533 59.0421 157.952 65.1814 166.652 64.7714Z" fill="#367CFF"/>
<path d="M96.7345 36.4287C96.6785 36.3026 96.5975 36.1892 96.4963 36.0955C96.3951 36.0017 96.2759 35.9295 96.1459 35.8833C96.0159 35.8371 95.8779 35.8179 95.7402 35.8268C95.6026 35.8357 95.4682 35.8726 95.3452 35.9352C95.1115 36.0645 94.9356 36.2778 94.8531 36.5319C94.7706 36.786 94.7876 37.062 94.9008 37.304L95.4563 38.5577L91.8871 35.4058C91.4962 35.0485 90.7883 34.8598 90.4164 35.3245C90.2617 35.4939 90.169 35.7108 90.1535 35.9397C90.138 36.1686 90.2005 36.396 90.3309 36.5848C90.3263 36.5878 90.322 36.5914 90.3182 36.5953C90.316 36.5986 90.314 36.6019 90.3122 36.6054L89.7098 36.0543C89.5988 35.953 89.4667 35.8776 89.323 35.8334C89.1794 35.7893 89.0277 35.7775 88.879 35.799C88.7302 35.8205 88.5881 35.8748 88.4628 35.9578C88.3376 36.0408 88.2323 36.1506 88.1545 36.2792C88.0349 36.487 87.9907 36.7299 88.0295 36.9665C88.0683 37.2032 88.1878 37.4192 88.3676 37.5779L88.6241 37.8125C88.6206 37.8234 88.6191 37.8347 88.6196 37.8461C88.4118 37.7288 88.1693 37.6885 87.9348 37.7323C87.7002 37.7761 87.4886 37.9012 87.3372 38.0855C87.175 38.2978 87.0994 38.5638 87.1258 38.8296C87.1521 39.0955 87.2785 39.3414 87.4792 39.5177L88.1095 40.0941C88.0947 40.0921 88.0797 40.0938 88.0656 40.0989C88.0516 40.104 88.0389 40.1123 88.0288 40.1233C88.0174 40.1369 88.0103 40.1535 88.0082 40.1711C87.7977 40.1192 87.5762 40.1359 87.376 40.2189C87.1758 40.3018 87.0073 40.4466 86.8951 40.632C86.7755 40.8399 86.7315 41.0828 86.7704 41.3194C86.8093 41.5561 86.9287 41.7721 87.1086 41.9308L92.4811 46.845C93.2328 47.5325 94.1727 47.9799 95.1804 48.1297C96.188 48.2795 97.2174 48.125 98.1366 47.686L101.096 46.2724L96.7345 36.4287Z" fill="#E98862"/>
<g opacity="0.2">
<path d="M93.8474 39.7229C93.8308 39.7409 93.8077 39.7518 93.7832 39.753C93.7586 39.7542 93.7346 39.7458 93.7162 39.7294L90.3258 36.7276C90.3072 36.7111 90.2959 36.6879 90.2944 36.6631C90.2929 36.6383 90.3013 36.6139 90.3177 36.5953C90.3342 36.5767 90.3574 36.5654 90.3822 36.5639C90.407 36.5624 90.4314 36.5708 90.45 36.5873L93.8405 39.5891C93.8497 39.5972 93.8572 39.6071 93.8626 39.6182C93.868 39.6293 93.8712 39.6413 93.8719 39.6536C93.8727 39.6658 93.871 39.6782 93.867 39.6898C93.863 39.7014 93.8567 39.7122 93.8485 39.7214L93.8474 39.7229Z" fill="#0C0C0C"/>
</g>
<g opacity="0.2">
<path d="M92.5657 41.2549C92.549 41.273 92.5259 41.2837 92.5014 41.2849C92.4769 41.2861 92.4528 41.2776 92.4345 41.2613L88.6508 37.9113C88.6415 37.9032 88.634 37.8933 88.6286 37.8822C88.6232 37.8711 88.6201 37.8591 88.6193 37.8468C88.6186 37.8346 88.6202 37.8222 88.6243 37.8106C88.6283 37.799 88.6345 37.7882 88.6427 37.779C88.6596 37.7611 88.6827 37.7503 88.7073 37.7488C88.7318 37.7473 88.756 37.7553 88.775 37.771L92.5587 41.121C92.568 41.1291 92.5755 41.139 92.5809 41.1501C92.5863 41.1611 92.5894 41.1731 92.5902 41.1854C92.5909 41.1977 92.5893 41.21 92.5852 41.2217C92.5812 41.2333 92.575 41.244 92.5668 41.2532L92.5657 41.2549Z" fill="#0C0C0C"/>
</g>
<g opacity="0.2">
<path d="M91.1852 42.922C91.1686 42.9401 91.1455 42.9509 91.1209 42.952C91.0964 42.9532 91.0724 42.9447 91.0541 42.9284L88.0358 40.2562C88.0171 40.2397 88.0058 40.2165 88.0043 40.1917C88.0028 40.1669 88.0112 40.1425 88.0277 40.1239C88.0442 40.1053 88.0674 40.094 88.0922 40.0925C88.117 40.0909 88.1414 40.0994 88.16 40.1158L91.179 42.7881C91.1883 42.7962 91.1958 42.8061 91.2011 42.8172C91.2065 42.8283 91.2097 42.8403 91.2104 42.8526C91.2111 42.8649 91.2094 42.8772 91.2054 42.8888C91.2014 42.9004 91.1951 42.9111 91.1869 42.9203L91.1852 42.922Z" fill="#0C0C0C"/>
</g>
<path d="M100.157 39.9033L120.504 56.57L150.543 59.1109C152.349 59.2623 154.027 60.1057 155.226 61.4651C156.425 62.8244 157.052 64.5945 156.977 66.4055C156.901 68.2164 156.129 69.9282 154.821 71.1832C153.513 72.4381 151.771 73.1392 149.959 73.1398C149.76 73.1398 149.56 73.1313 149.359 73.1144L117.108 70.3872C115.669 70.2654 114.302 69.7033 113.194 68.7774L91.8855 49.8732L100.157 39.9033Z" fill="#367CFF"/>
<path d="M94.6074 42.9518L79.6565 39.9783L82.0119 28.136L85.859 25.6696L97.5811 28.0009L94.6074 42.9518Z" fill="#0CBC8B"/>
<path opacity="0.29" d="M85.8591 25.6696L82.012 28.136L85.2488 28.8363L85.8591 25.6696Z" fill="#FFFFFA"/>
<g opacity="0.88">
<path d="M94.806 33.3104C94.7934 33.3104 94.7808 33.3092 94.7685 33.3067L83.243 30.9683C83.2188 30.9634 83.1959 30.9538 83.1755 30.94C83.1551 30.9262 83.1377 30.9086 83.1241 30.8881C83.0967 30.8466 83.0869 30.7959 83.0968 30.7472C83.1067 30.6985 83.1356 30.6558 83.1771 30.6284C83.2186 30.601 83.2692 30.5911 83.3179 30.6011L94.8435 32.9394C94.889 32.9486 94.9295 32.9745 94.957 33.0119C94.9846 33.0493 94.9973 33.0956 94.9926 33.1419C94.9879 33.1881 94.9663 33.2309 94.9318 33.2621C94.8973 33.2932 94.8525 33.3104 94.806 33.3104V33.3104Z" fill="white"/>
<path d="M94.3817 35.5022C94.3691 35.5022 94.3565 35.501 94.3442 35.4984L82.8186 33.1601C82.7699 33.1502 82.7272 33.1213 82.6998 33.0798C82.6724 33.0384 82.6625 32.9877 82.6725 32.939C82.6824 32.8903 82.7113 32.8475 82.7528 32.8201C82.7942 32.7927 82.8449 32.7829 82.8936 32.7928L94.4192 35.1312C94.4647 35.1404 94.5052 35.1662 94.5327 35.2037C94.5603 35.2411 94.573 35.2874 94.5683 35.3336C94.5636 35.3799 94.5419 35.4227 94.5075 35.4539C94.473 35.485 94.4281 35.5022 94.3817 35.5022V35.5022Z" fill="white"/>
<path d="M93.9251 37.9201C93.9125 37.9202 93.9 37.9189 93.8877 37.9164L82.3621 35.5781C82.338 35.5732 82.3151 35.5635 82.2947 35.5498C82.2743 35.536 82.2568 35.5183 82.2432 35.4978C82.2158 35.4563 82.206 35.4057 82.2159 35.357C82.2259 35.3083 82.2548 35.2655 82.2962 35.2381C82.3377 35.2107 82.3884 35.2009 82.4371 35.2108L93.9624 37.5493C94.0078 37.5588 94.048 37.5847 94.0754 37.622C94.1027 37.6594 94.1153 37.7055 94.1107 37.7516C94.106 37.7977 94.0844 37.8404 94.0502 37.8715C94.0159 37.9026 93.9713 37.92 93.9249 37.9201H93.9251Z" fill="white"/>
<path d="M87.1242 38.7896C87.1116 38.7897 87.099 38.7884 87.0867 38.7859L81.9744 37.7485C81.9498 37.7441 81.9263 37.7348 81.9054 37.7212C81.8844 37.7076 81.8664 37.69 81.8524 37.6693C81.8384 37.6486 81.8286 37.6253 81.8237 37.6008C81.8188 37.5763 81.8189 37.5511 81.8239 37.5266C81.8289 37.5021 81.8387 37.4789 81.8528 37.4583C81.8669 37.4376 81.885 37.4201 81.906 37.4065C81.927 37.393 81.9505 37.3838 81.9752 37.3795C81.9998 37.3752 82.025 37.3759 82.0493 37.3815L87.1616 38.4186C87.2072 38.4278 87.2476 38.4537 87.2752 38.4911C87.3028 38.5285 87.3154 38.5748 87.3108 38.6211C87.3061 38.6673 87.2844 38.7101 87.2499 38.7413C87.2154 38.7724 87.1706 38.7897 87.1242 38.7896V38.7896Z" fill="white"/>
</g>
<path d="M95.6437 39.026L94.9007 37.304C94.7876 37.062 94.7705 36.786 94.853 36.5319C94.9356 36.2778 95.1115 36.0645 95.3452 35.9352C95.4681 35.8726 95.6025 35.8357 95.7402 35.8268C95.8779 35.8179 96.0159 35.8371 96.1459 35.8833C96.2759 35.9295 96.3951 36.0017 96.4963 36.0954C96.5975 36.1892 96.6785 36.3026 96.7344 36.4287" fill="#E98862"/>
<path d="M162.952 83.2717L158.01 79.1767C157.904 79.0886 157.781 79.0231 157.649 78.9842C157.516 78.9453 157.378 78.9338 157.241 78.9503C157.104 78.9669 156.971 79.0112 156.852 79.0805C156.733 79.1498 156.629 79.2427 156.547 79.3535C156.395 79.5736 156.332 79.843 156.372 80.1074C156.411 80.3718 156.549 80.6113 156.759 80.7776L157.815 81.6525L162.784 84.2264L162.952 83.2717Z" fill="#E98862"/>
<path d="M157.815 81.6512L153.215 80.4194C152.706 80.2734 151.988 80.4194 151.862 81.0017C151.799 81.2224 151.812 81.458 151.9 81.67C151.988 81.882 152.146 82.0579 152.346 82.1691C152.344 82.1736 152.342 82.1783 152.34 82.1832C152.34 82.1871 152.34 82.1909 152.34 82.1948L151.555 81.9699C151.41 81.9285 151.258 81.9198 151.11 81.9442C150.962 81.9687 150.821 82.0258 150.697 82.1114C150.573 82.197 150.47 82.309 150.395 82.4393C150.32 82.5696 150.274 82.7149 150.262 82.8649C150.248 83.1043 150.316 83.3414 150.456 83.5361C150.597 83.7307 150.8 83.8709 151.032 83.9329L151.366 84.0287C151.367 84.0396 151.371 84.0501 151.376 84.0598C151.138 84.0477 150.903 84.1199 150.713 84.2638C150.522 84.4077 150.388 84.6141 150.335 84.8468C150.285 85.109 150.336 85.3805 150.478 85.6066C150.62 85.8327 150.842 85.9964 151.1 86.0647L151.921 86.3001C151.907 86.305 151.895 86.3132 151.884 86.3239C151.874 86.3347 151.866 86.3478 151.862 86.3621C151.858 86.3794 151.859 86.3975 151.865 86.4142C151.653 86.4615 151.463 86.5751 151.32 86.7386C151.178 86.9021 151.092 87.1068 151.074 87.3228C151.059 87.5623 151.128 87.7994 151.268 87.994C151.408 88.1887 151.612 88.3289 151.843 88.3909L158.842 90.3968C159.821 90.6774 160.862 90.6593 161.831 90.3447C162.8 90.03 163.653 89.4332 164.281 88.6307L166.301 86.0466L157.815 81.6512Z" fill="#E98862"/>
<g opacity="0.2">
<path d="M156.893 83.4111C156.886 83.4346 156.871 83.4544 156.849 83.4664C156.828 83.4784 156.803 83.4815 156.779 83.4751L152.406 82.2973C152.394 82.2941 152.383 82.2886 152.374 82.2811C152.364 82.2736 152.356 82.2642 152.349 82.2535C152.343 82.2429 152.339 82.2311 152.338 82.2189C152.336 82.2067 152.337 82.1943 152.34 82.1824C152.343 82.1705 152.349 82.1594 152.356 82.1496C152.364 82.1399 152.373 82.1317 152.384 82.1255C152.395 82.1194 152.406 82.1154 152.419 82.1138C152.431 82.1122 152.443 82.1131 152.455 82.1163L156.828 83.2934C156.852 83.2999 156.872 83.3156 156.885 83.3372C156.897 83.3587 156.9 83.3843 156.894 83.4082L156.893 83.4111Z" fill="#0C0C0C"/>
</g>
<g opacity="0.2">
<path d="M156.427 85.354C156.42 85.3774 156.404 85.3972 156.383 85.4092C156.362 85.4211 156.337 85.4243 156.313 85.4179L151.433 84.1042C151.409 84.0977 151.389 84.082 151.376 84.0604C151.364 84.0389 151.361 84.0133 151.367 83.9893C151.374 83.9658 151.39 83.9459 151.411 83.9336C151.433 83.9213 151.458 83.9176 151.482 83.9232L156.362 85.2369C156.374 85.2401 156.385 85.2456 156.395 85.2531C156.404 85.2606 156.413 85.27 156.419 85.2806C156.425 85.2913 156.429 85.3031 156.43 85.3153C156.432 85.3275 156.431 85.3399 156.428 85.3518L156.427 85.354Z" fill="#0C0C0C"/>
</g>
<g opacity="0.2">
<path d="M155.935 87.4611C155.928 87.4846 155.912 87.5045 155.891 87.5164C155.869 87.5284 155.844 87.5316 155.82 87.5252L151.928 86.4772C151.915 86.4743 151.904 86.469 151.894 86.4616C151.884 86.4542 151.875 86.4448 151.869 86.434C151.862 86.4233 151.858 86.4113 151.856 86.3988C151.854 86.3864 151.855 86.3737 151.858 86.3616C151.862 86.3494 151.867 86.3381 151.875 86.3282C151.883 86.3183 151.893 86.31 151.904 86.3039C151.915 86.2978 151.927 86.294 151.939 86.2927C151.952 86.2914 151.964 86.2927 151.976 86.2963L155.869 87.3442C155.881 87.3474 155.892 87.3529 155.902 87.3604C155.912 87.3679 155.92 87.3772 155.926 87.3879C155.932 87.3986 155.936 87.4103 155.938 87.4225C155.939 87.4348 155.938 87.4472 155.935 87.459L155.935 87.4611Z" fill="#0C0C0C"/>
</g>
<path d="M159.377 92.214L191.169 101.391C192.45 101.731 193.8 101.702 195.065 101.307C196.33 100.913 197.457 100.169 198.317 99.1607C199.177 98.1528 199.735 96.9224 199.926 95.6113C200.116 94.3002 199.932 92.9619 199.395 91.7508L188.556 65.9298C188.182 65.0863 187.646 64.3248 186.977 63.6887C186.309 63.0526 185.521 62.5544 184.66 62.2225C183.799 61.8907 182.881 61.7317 181.959 61.7546C181.036 61.7775 180.127 61.9819 179.284 62.3561C178.44 62.7303 177.679 63.2669 177.043 63.9354C176.407 64.6039 175.909 65.3912 175.577 66.2522C175.245 67.1132 175.086 68.0312 175.109 68.9537C175.132 69.8762 175.336 70.7851 175.71 71.6286L182.227 85.2071L162.406 80.6239L159.377 92.214Z" fill="#367CFF"/>
<path d="M186.104 100.023C186.095 100.023 186.086 100.021 186.078 100.019L159.351 92.3034C159.328 92.2966 159.308 92.2809 159.296 92.2597C159.284 92.2385 159.281 92.2134 159.287 92.1898L162.316 80.5996C162.322 80.5759 162.337 80.5555 162.358 80.5428C162.379 80.5302 162.404 80.5263 162.428 80.532L182.06 85.0705L175.627 71.6678C175.621 71.6566 175.617 71.6444 175.616 71.6317C175.614 71.6191 175.616 71.6063 175.62 71.5942C175.624 71.5822 175.63 71.571 175.638 71.5614C175.647 71.5518 175.657 71.5441 175.668 71.5386C175.68 71.5331 175.692 71.5299 175.705 71.5294C175.718 71.5288 175.73 71.5309 175.742 71.5354C175.754 71.5399 175.765 71.5467 175.774 71.5556C175.783 71.5644 175.79 71.5749 175.795 71.5867L182.313 85.1651C182.32 85.181 182.323 85.1987 182.321 85.2161C182.319 85.2335 182.312 85.25 182.301 85.2636C182.29 85.2773 182.275 85.2876 182.259 85.2934C182.242 85.2992 182.224 85.3002 182.207 85.2963L162.474 80.7357L159.491 92.1494L186.13 99.8387C186.152 99.8449 186.17 99.8587 186.183 99.8777C186.195 99.8967 186.2 99.9195 186.197 99.942C186.194 99.9644 186.183 99.9849 186.166 99.9997C186.148 100.015 186.126 100.023 186.104 100.023V100.023Z" fill="#0C0C0C"/>
<path d="M185.501 86.0119C185.494 86.0119 185.488 86.0112 185.481 86.0099L182.209 85.2978C182.184 85.2923 182.164 85.2775 182.15 85.2567C182.137 85.2359 182.133 85.2106 182.138 85.1865C182.143 85.1624 182.158 85.1413 182.178 85.1279C182.199 85.1145 182.224 85.1097 182.248 85.1147L185.521 85.8268C185.544 85.8318 185.563 85.8449 185.577 85.8637C185.59 85.8824 185.596 85.9054 185.594 85.9283C185.591 85.9512 185.58 85.9724 185.563 85.9878C185.546 86.0033 185.524 86.0118 185.501 86.0119V86.0119Z" fill="#0C0C0C"/>
<path d="M144.883 72.8303C144.859 72.8303 144.837 72.8214 144.819 72.8054C144.802 72.7893 144.791 72.7673 144.789 72.7437L144.372 67.3398C144.371 67.3275 144.372 67.3152 144.376 67.3035C144.38 67.2917 144.386 67.2809 144.394 67.2715C144.402 67.2622 144.412 67.2545 144.423 67.2489C144.434 67.2433 144.446 67.24 144.458 67.239C144.471 67.2381 144.483 67.2396 144.495 67.2434C144.507 67.2473 144.517 67.2534 144.527 67.2614C144.536 67.2695 144.544 67.2793 144.549 67.2903C144.555 67.3013 144.558 67.3133 144.559 67.3256L144.977 72.7295C144.979 72.7542 144.971 72.7787 144.954 72.7975C144.938 72.8163 144.915 72.828 144.891 72.8299C144.888 72.8302 144.886 72.8303 144.883 72.8303Z" fill="#0C0C0C"/>
<path d="M157.656 42.2469C157.992 42.2469 158.264 41.9744 158.264 41.6383C158.264 41.3021 157.992 41.0297 157.656 41.0297C157.32 41.0297 157.047 41.3021 157.047 41.6383C157.047 41.9744 157.32 42.2469 157.656 42.2469Z" fill="#0C0C0C"/>
<path d="M163.825 43.2891C164.161 43.2891 164.433 43.0166 164.433 42.6805C164.433 42.3444 164.161 42.0719 163.825 42.0719C163.489 42.0719 163.216 42.3444 163.216 42.6805C163.216 43.0166 163.489 43.2891 163.825 43.2891Z" fill="#0C0C0C"/>
<path d="M188.875 117.025H5.96814C5.91845 117.025 5.87078 117.005 5.83564 116.97C5.8005 116.935 5.78076 116.887 5.78076 116.838C5.78076 116.788 5.8005 116.74 5.83564 116.705C5.87078 116.67 5.91845 116.65 5.96814 116.65H188.875C188.925 116.65 188.973 116.67 189.008 116.705C189.043 116.74 189.063 116.788 189.063 116.838C189.063 116.887 189.043 116.935 189.008 116.97C188.973 117.005 188.925 117.025 188.875 117.025Z" fill="#292A2E"/>
</g>
<defs>
<clipPath id="clip0_138_4943">
<rect width="200" height="117.025" fill="white"/>
</clipPath>
</defs>
</svg>
