<svg width="250" height="176" viewBox="0 0 250 176" fill="none" xmlns="http://www.w3.org/2000/svg">
<path opacity="0.1" d="M166.299 11.1366C104.193 -13.5229 29.7046 28.8721 12.4636 63.8415C-28.9366 147.811 43.4117 186.563 75.2389 172.389C88.5257 166.471 99.3789 156.366 109.868 146.534C125.618 131.898 146.485 123.464 168.368 122.889C185.22 122.516 201.992 126.87 218.797 125.591C235.601 124.313 250.445 102.002 249.99 85.7794C249.295 61.0194 232.897 37.5789 166.299 11.1366Z" fill="#367CFF"/>
<path d="M209.062 8.93628H40.9385C35.3634 8.93628 30.8439 13.2872 30.8439 18.6543V146.022C30.8439 151.389 35.3634 155.74 40.9385 155.74H209.062C214.637 155.74 219.156 151.389 219.156 146.022V18.6543C219.156 13.2872 214.637 8.93628 209.062 8.93628Z" fill="white"/>
<path d="M209.062 156.045H40.9381C38.1778 156.042 35.5315 154.985 33.5797 153.106C31.6279 151.227 30.53 148.679 30.527 146.022V18.6543C30.53 15.997 31.6279 13.4493 33.5797 11.5703C35.5315 9.69124 38.1778 8.63426 40.9381 8.63123H209.062C211.822 8.63426 214.468 9.69124 216.42 11.5703C218.372 13.4493 219.47 15.997 219.473 18.6543V146.022C219.47 148.679 218.372 151.227 216.42 153.106C214.468 154.985 211.822 156.042 209.062 156.045ZM40.9381 9.24108C38.3458 9.24394 35.8605 10.2366 34.0274 12.0013C32.1944 13.766 31.1633 16.1587 31.1605 18.6543V146.022C31.1633 148.518 32.1944 150.91 34.0274 152.675C35.8605 154.44 38.3458 155.432 40.9381 155.435H209.062C211.654 155.432 214.139 154.44 215.972 152.675C217.805 150.91 218.837 148.518 218.839 146.022V18.6543C218.837 16.1587 217.805 13.766 215.972 12.0013C214.139 10.2366 211.654 9.24394 209.062 9.24108H40.9381Z" fill="#292A2E"/>
<path d="M219.156 18.6558V37.0836H30.8446V18.6558C30.8442 17.3793 31.1051 16.1153 31.6123 14.9359C32.1195 13.7565 32.8631 12.6849 33.8006 11.7823C34.7382 10.8796 35.8512 10.1637 37.0762 9.67526C38.3013 9.18685 39.6142 8.93558 40.9402 8.93579H209.062C211.74 8.93623 214.307 9.96051 216.2 11.7833C218.093 13.6062 219.157 16.0782 219.156 18.6558Z" fill="#367CFF"/>
<path d="M219.496 37.4106H30.5049V18.6555C30.5075 15.9918 31.6077 13.4378 33.5641 11.5542C35.5205 9.67053 38.1732 8.61101 40.9402 8.60815H209.062C211.829 8.61145 214.481 9.67114 216.438 11.5547C218.394 13.4383 219.494 15.992 219.496 18.6555V37.4106ZM31.1856 36.7559H218.816V18.6555C218.814 16.1656 217.785 13.7784 215.957 12.0176C214.128 10.2567 211.649 9.26606 209.062 9.26285H40.9402C38.3536 9.26563 35.8738 10.2561 34.0449 12.017C32.216 13.7779 31.1875 16.1654 31.1849 18.6555L31.1856 36.7559Z" fill="#367CFF"/>
<path d="M79.7571 18.4828V4.87917C79.7571 2.37487 77.6483 0.344727 75.0469 0.344727C72.4456 0.344727 70.3368 2.37487 70.3368 4.87917V18.4828C70.3368 20.9871 72.4456 23.0173 75.0469 23.0173C77.6483 23.0173 79.7571 20.9871 79.7571 18.4828Z" fill="white"/>
<path d="M75.0455 23.3222C73.713 23.3204 72.4355 22.81 71.4933 21.9027C70.5512 20.9955 70.0213 19.7655 70.0198 18.4826V4.87933C70.0144 4.24047 70.1404 3.60688 70.3905 3.01514C70.6407 2.42339 71.0101 1.88518 71.4775 1.43157C71.9448 0.977952 72.5008 0.617908 73.1134 0.372205C73.726 0.126501 74.3831 0 75.0467 0C75.7104 0 76.3674 0.126501 76.98 0.372205C77.5926 0.617908 78.1487 0.977952 78.616 1.43157C79.0833 1.88518 79.4527 2.42339 79.7029 3.01514C79.9531 3.60688 80.0791 4.24047 80.0736 4.87933V18.4826C80.0722 19.7659 79.5419 20.9962 78.5993 21.9035C77.6566 22.8108 76.3785 23.321 75.0455 23.3222ZM75.0455 0.649653C73.8807 0.650866 72.7639 1.09688 71.9402 1.88984C71.1165 2.68279 70.6532 3.75792 70.652 4.87933V18.4826C70.6469 19.0412 70.7567 19.5952 70.9752 20.1127C71.1937 20.6301 71.5165 21.1008 71.925 21.4975C72.3335 21.8942 72.8195 22.2091 73.3551 22.424C73.8907 22.6389 74.4651 22.7495 75.0454 22.7495C75.6256 22.7495 76.2001 22.6389 76.7356 22.424C77.2712 22.2091 77.7573 21.8942 78.1657 21.4975C78.5742 21.1008 78.897 20.6301 79.1155 20.1127C79.334 19.5952 79.4439 19.0412 79.4388 18.4826V4.87933C79.4375 3.75798 78.9743 2.6829 78.1507 1.88995C77.327 1.09701 76.2103 0.650953 75.0455 0.649653Z" fill="#262626"/>
<path d="M179.663 18.4823V4.87868C179.663 2.37438 177.555 0.344238 174.953 0.344238C172.352 0.344238 170.243 2.37438 170.243 4.87868V18.4823C170.243 20.9866 172.352 23.0168 174.953 23.0168C177.555 23.0168 179.663 20.9866 179.663 18.4823Z" fill="white"/>
<path d="M174.953 23.322C173.62 23.3207 172.343 22.8103 171.4 21.9031C170.458 20.9958 169.928 19.7656 169.926 18.4825V4.8792C169.926 3.59568 170.456 2.36473 171.399 1.45714C172.341 0.54955 173.62 0.0396729 174.953 0.0396729C176.287 0.0396729 177.565 0.54955 178.508 1.45714C179.451 2.36473 179.98 3.59568 179.98 4.8792V18.4825C179.979 19.7656 179.449 20.9958 178.506 21.9031C177.564 22.8103 176.286 23.3207 174.953 23.322ZM174.953 0.649524C173.789 0.651084 172.672 1.09725 171.849 1.89017C171.025 2.68309 170.562 3.75802 170.561 4.8792V18.4825C170.561 19.6043 171.024 20.6801 171.848 21.4734C172.672 22.2666 173.789 22.7122 174.955 22.7122C176.12 22.7122 177.237 22.2666 178.061 21.4734C178.885 20.6801 179.348 19.6043 179.348 18.4825V4.8792C179.347 3.75757 178.883 2.68224 178.06 1.88925C177.236 1.09625 176.118 0.650391 174.953 0.649524Z" fill="#262626"/>
<g opacity="0.08">
<path d="M67.1561 50.1228H40.0456V75.7755H67.1561V50.1228Z" fill="#367CFF"/>
<path d="M67.1561 82.9091H40.0455V108.562H67.1561V82.9091Z" fill="#367CFF"/>
<path d="M67.1561 115.695H40.0455V141.348H67.1561V115.695Z" fill="#367CFF"/>
<path d="M102.854 50.1229H75.743V75.7756H102.854V50.1229Z" fill="#367CFF"/>
<path d="M102.854 82.9091H75.743V108.562H102.854V82.9091Z" fill="#367CFF"/>
<path d="M138.192 50.1229H111.081V75.7756H138.192V50.1229Z" fill="#367CFF"/>
<path d="M138.192 82.9091H111.081V108.562H138.192V82.9091Z" fill="#367CFF"/>
<path d="M174.53 50.1229H147.419V75.7756H174.53V50.1229Z" fill="#367CFF"/>
<path d="M174.53 82.9091H147.419V108.562H174.53V82.9091Z" fill="#367CFF"/>
<path d="M102.854 115.695H75.743V141.348H102.854V115.695Z" fill="#367CFF"/>
<path d="M138.192 115.695H111.081V141.348H138.192V115.695Z" fill="#367CFF"/>
<path d="M209.954 50.1229H182.844V75.7756H209.954V50.1229Z" fill="#367CFF"/>
<path d="M209.954 82.9091H182.844V108.562H209.954V82.9091Z" fill="#367CFF"/>
</g>
<path d="M107.527 87.6129C110.342 87.6129 112.623 85.4163 112.623 82.7066C112.623 79.9969 110.342 77.8003 107.527 77.8003C104.712 77.8003 102.431 79.9969 102.431 82.7066C102.431 85.4163 104.712 87.6129 107.527 87.6129Z" fill="#292A2E"/>
<path d="M142.473 87.6129C145.288 87.6129 147.569 85.4163 147.569 82.7066C147.569 79.9969 145.288 77.8003 142.473 77.8003C139.658 77.8003 137.376 79.9969 137.376 82.7066C137.376 85.4163 139.658 87.6129 142.473 87.6129Z" fill="#292A2E"/>
<path d="M131.833 96.2753H118.167C118.077 96.2753 117.99 96.2408 117.927 96.1794C117.863 96.118 117.827 96.0348 117.827 95.948C117.827 95.8611 117.863 95.7779 117.927 95.7165C117.99 95.6551 118.077 95.6206 118.167 95.6206H131.833C131.923 95.6206 132.01 95.6551 132.073 95.7165C132.137 95.7779 132.173 95.8611 132.173 95.948C132.173 96.0348 132.137 96.118 132.073 96.1794C132.01 96.2408 131.923 96.2753 131.833 96.2753Z" fill="#262626"/>
<path d="M102.27 96.7415C104.781 96.7415 106.816 95.7102 106.816 94.438C106.816 93.1657 104.781 92.1344 102.27 92.1344C99.7589 92.1344 97.7235 93.1657 97.7235 94.438C97.7235 95.7102 99.7589 96.7415 102.27 96.7415Z" fill="white"/>
<path d="M147.73 96.7416C150.241 96.7416 152.276 95.7103 152.276 94.4381C152.276 93.1659 150.241 92.1345 147.73 92.1345C145.219 92.1345 143.184 93.1659 143.184 94.4381C143.184 95.7103 145.219 96.7416 147.73 96.7416Z" fill="white"/>
<g opacity="0.4">
<path d="M102.27 96.7415C104.781 96.7415 106.816 95.7102 106.816 94.438C106.816 93.1657 104.781 92.1344 102.27 92.1344C99.7589 92.1344 97.7235 93.1657 97.7235 94.438C97.7235 95.7102 99.7589 96.7415 102.27 96.7415Z" fill="#367CFF"/>
<path d="M147.73 96.7416C150.241 96.7416 152.276 95.7103 152.276 94.4381C152.276 93.1659 150.241 92.1345 147.73 92.1345C145.219 92.1345 143.184 93.1659 143.184 94.4381C143.184 95.7103 145.219 96.7416 147.73 96.7416Z" fill="#367CFF"/>
</g>
</svg>
