<svg width="69" height="80" viewBox="0 0 69 80" fill="none" xmlns="http://www.w3.org/2000/svg">
<path d="M64.6896 0.101624H10.7532C8.96464 0.101624 7.51474 1.55153 7.51474 3.34008V45.7848C7.51474 47.5734 8.96464 49.0233 10.7532 49.0233H64.6896C66.4781 49.0233 67.928 47.5734 67.928 45.7848V3.34008C67.928 1.55153 66.4781 0.101624 64.6896 0.101624Z" fill="white"/>
<path d="M64.6896 49.125H10.7532C9.86761 49.124 9.01856 48.7718 8.39235 48.1456C7.76615 47.5194 7.41392 46.6703 7.41296 45.7847V3.34024C7.41392 2.45464 7.76615 1.6056 8.39235 0.97939C9.01856 0.353182 9.86761 0.000957835 10.7532 0L64.6896 0C65.5751 0.000982346 66.4242 0.353215 67.0504 0.979418C67.6766 1.60562 68.0288 2.45465 68.0298 3.34024V45.7848C68.0288 46.6704 67.6766 47.5194 67.0504 48.1456C66.4242 48.7718 65.5751 49.124 64.6896 49.125ZM10.7532 0.20329C9.92153 0.204248 9.1242 0.535057 8.53614 1.12314C7.94807 1.71123 7.61728 2.50857 7.61635 3.34024V45.7848C7.6173 46.6165 7.9481 47.4138 8.53617 48.0018C9.12423 48.5899 9.92155 48.9207 10.7532 48.9217H64.6896C65.5212 48.9207 66.3186 48.5899 66.9066 48.0019C67.4947 47.4138 67.8255 46.6165 67.8264 45.7848V3.34024C67.8255 2.50856 67.4947 1.71121 66.9067 1.12312C66.3186 0.535025 65.5212 0.204224 64.6896 0.20329H10.7532Z" fill="#292A2E"/>
<path opacity="0.2" d="M63.1932 8.89636H59.8814C59.1834 8.89636 58.6175 9.46223 58.6175 10.1603V13.472C58.6175 14.1701 59.1834 14.7359 59.8814 14.7359H63.1932C63.8912 14.7359 64.4571 14.1701 64.4571 13.472V10.1603C64.4571 9.46223 63.8912 8.89636 63.1932 8.89636Z" fill="#367CFF"/>
<path opacity="0.2" d="M63.296 16.2724H60.0096C59.3046 16.2724 58.733 16.844 58.733 17.549V20.8354C58.733 21.5404 59.3046 22.112 60.0096 22.112H63.296C64.001 22.112 64.5726 21.5404 64.5726 20.8354V17.549C64.5726 16.844 64.001 16.2724 63.296 16.2724Z" fill="#367CFF"/>
<path opacity="0.2" d="M63.296 24.4875H60.0096C59.3046 24.4875 58.733 25.0591 58.733 25.7642V29.0505C58.733 29.7556 59.3046 30.3271 60.0096 30.3271H63.296C64.001 30.3271 64.5726 29.7556 64.5726 29.0505V25.7642C64.5726 25.0591 64.001 24.4875 63.296 24.4875Z" fill="#367CFF"/>
<path opacity="0.2" d="M63.1804 32.2823H59.8941C59.1891 32.2823 58.6175 32.8539 58.6175 33.559V36.8453C58.6175 37.5504 59.1891 38.1219 59.8941 38.1219H63.1804C63.8855 38.1219 64.4571 37.5504 64.4571 36.8453V33.559C64.4571 32.8539 63.8855 32.2823 63.1804 32.2823Z" fill="#367CFF"/>
<g opacity="0.15">
<path d="M39.381 8.89636H36.0692C35.3712 8.89636 34.8053 9.46223 34.8053 10.1603V13.472C34.8053 14.1701 35.3712 14.7359 36.0692 14.7359H39.381C40.079 14.7359 40.6449 14.1701 40.6449 13.472V10.1603C40.6449 9.46223 40.079 8.89636 39.381 8.89636Z" fill="#367CFF"/>
<path d="M31.4436 8.89636H28.1318C27.4338 8.89636 26.8679 9.46223 26.8679 10.1603V13.472C26.8679 14.1701 27.4338 14.7359 28.1318 14.7359H31.4436C32.1416 14.7359 32.7075 14.1701 32.7075 13.472V10.1603C32.7075 9.46223 32.1416 8.89636 31.4436 8.89636Z" fill="#367CFF"/>
<path d="M23.6216 8.89636H20.3099C19.6119 8.89636 19.046 9.46223 19.046 10.1603V13.472C19.046 14.1701 19.6119 14.7359 20.3099 14.7359H23.6216C24.3197 14.7359 24.8856 14.1701 24.8856 13.472V10.1603C24.8856 9.46223 24.3197 8.89636 23.6216 8.89636Z" fill="#367CFF"/>
<path d="M15.6842 8.89636H12.3725C11.6744 8.89636 11.1086 9.46223 11.1086 10.1603V13.472C11.1086 14.1701 11.6744 14.7359 12.3725 14.7359H15.6842C16.3822 14.7359 16.9481 14.1701 16.9481 13.472V10.1603C16.9481 9.46223 16.3822 8.89636 15.6842 8.89636Z" fill="#367CFF"/>
<path d="M47.3183 8.89636H44.0066C43.3085 8.89636 42.7426 9.46223 42.7426 10.1603V13.472C42.7426 14.1701 43.3085 14.7359 44.0066 14.7359H47.3183C48.0163 14.7359 48.5822 14.1701 48.5822 13.472V10.1603C48.5822 9.46223 48.0163 8.89636 47.3183 8.89636Z" fill="#367CFF"/>
<path d="M55.2557 8.89636H51.944C51.2459 8.89636 50.6801 9.46223 50.6801 10.1603V13.472C50.6801 14.1701 51.2459 14.7359 51.944 14.7359H55.2557C55.9538 14.7359 56.5196 14.1701 56.5196 13.472V10.1603C56.5196 9.46223 55.9538 8.89636 55.2557 8.89636Z" fill="#367CFF"/>
<path d="M39.4837 16.2725H36.1974C35.4923 16.2725 34.9207 16.844 34.9207 17.5491V20.8354C34.9207 21.5405 35.4923 22.112 36.1974 22.112H39.4837C40.1888 22.112 40.7603 21.5405 40.7603 20.8354V17.5491C40.7603 16.844 40.1888 16.2725 39.4837 16.2725Z" fill="#367CFF"/>
<path d="M47.4211 16.2725H44.1348C43.4297 16.2725 42.8582 16.844 42.8582 17.5491V20.8354C42.8582 21.5405 43.4297 22.112 44.1348 22.112H47.4211C48.1262 22.112 48.6977 21.5405 48.6977 20.8354V17.5491C48.6977 16.844 48.1262 16.2725 47.4211 16.2725Z" fill="#367CFF"/>
<path d="M55.3585 16.2725H52.0722C51.3672 16.2725 50.7956 16.844 50.7956 17.5491V20.8354C50.7956 21.5405 51.3672 22.112 52.0722 22.112H55.3585C56.0636 22.112 56.6352 21.5405 56.6352 20.8354V17.5491C56.6352 16.844 56.0636 16.2725 55.3585 16.2725Z" fill="#367CFF"/>
<path d="M15.6715 16.2725H12.3852C11.6801 16.2725 11.1086 16.844 11.1086 17.5491V20.8354C11.1086 21.5405 11.6801 22.112 12.3852 22.112H15.6715C16.3766 22.112 16.9481 21.5405 16.9481 20.8354V17.5491C16.9481 16.844 16.3766 16.2725 15.6715 16.2725Z" fill="#367CFF"/>
<path d="M23.6089 16.2725H20.3226C19.6176 16.2725 19.046 16.844 19.046 17.5491V20.8354C19.046 21.5405 19.6176 22.112 20.3226 22.112H23.6089C24.314 22.112 24.8856 21.5405 24.8856 20.8354V17.5491C24.8856 16.844 24.314 16.2725 23.6089 16.2725Z" fill="#367CFF"/>
<path d="M31.5463 16.2725H28.2599C27.5549 16.2725 26.9833 16.844 26.9833 17.5491V20.8354C26.9833 21.5405 27.5549 22.112 28.2599 22.112H31.5463C32.2513 22.112 32.8229 21.5405 32.8229 20.8354V17.5491C32.8229 16.844 32.2513 16.2725 31.5463 16.2725Z" fill="#367CFF"/>
<path d="M39.4837 24.4875H36.1974C35.4923 24.4875 34.9207 25.0591 34.9207 25.7642V29.0505C34.9207 29.7556 35.4923 30.3271 36.1974 30.3271H39.4837C40.1888 30.3271 40.7603 29.7556 40.7603 29.0505V25.7642C40.7603 25.0591 40.1888 24.4875 39.4837 24.4875Z" fill="#367CFF"/>
<path d="M47.4211 24.4875H44.1348C43.4297 24.4875 42.8582 25.0591 42.8582 25.7642V29.0505C42.8582 29.7556 43.4297 30.3271 44.1348 30.3271H47.4211C48.1262 30.3271 48.6977 29.7556 48.6977 29.0505V25.7642C48.6977 25.0591 48.1262 24.4875 47.4211 24.4875Z" fill="#367CFF"/>
<path d="M55.3585 24.4875H52.0722C51.3672 24.4875 50.7956 25.0591 50.7956 25.7642V29.0505C50.7956 29.7556 51.3672 30.3271 52.0722 30.3271H55.3585C56.0636 30.3271 56.6352 29.7556 56.6352 29.0505V25.7642C56.6352 25.0591 56.0636 24.4875 55.3585 24.4875Z" fill="#367CFF"/>
<path d="M15.6715 24.4875H12.3852C11.6801 24.4875 11.1086 25.0591 11.1086 25.7642V29.0505C11.1086 29.7556 11.6801 30.3271 12.3852 30.3271H15.6715C16.3766 30.3271 16.9481 29.7556 16.9481 29.0505V25.7642C16.9481 25.0591 16.3766 24.4875 15.6715 24.4875Z" fill="#367CFF"/>
<path d="M23.6089 24.4875H20.3226C19.6176 24.4875 19.046 25.0591 19.046 25.7642V29.0505C19.046 29.7556 19.6176 30.3271 20.3226 30.3271H23.6089C24.314 30.3271 24.8856 29.7556 24.8856 29.0505V25.7642C24.8856 25.0591 24.314 24.4875 23.6089 24.4875Z" fill="#367CFF"/>
<path d="M31.5463 24.4875H28.2599C27.5549 24.4875 26.9833 25.0591 26.9833 25.7642V29.0505C26.9833 29.7556 27.5549 30.3271 28.2599 30.3271H31.5463C32.2513 30.3271 32.8229 29.7556 32.8229 29.0505V25.7642C32.8229 25.0591 32.2513 24.4875 31.5463 24.4875Z" fill="#367CFF"/>
<path d="M39.4837 32.3978H36.1974C35.4923 32.3978 34.9207 32.9694 34.9207 33.6744V36.9608C34.9207 37.6658 35.4923 38.2374 36.1974 38.2374H39.4837C40.1888 38.2374 40.7603 37.6658 40.7603 36.9608V33.6744C40.7603 32.9694 40.1888 32.3978 39.4837 32.3978Z" fill="#367CFF"/>
<path d="M47.3056 32.2823H44.0193C43.3142 32.2823 42.7426 32.8539 42.7426 33.559V36.8453C42.7426 37.5504 43.3142 38.1219 44.0193 38.1219H47.3056C48.0107 38.1219 48.5822 37.5504 48.5822 36.8453V33.559C48.5822 32.8539 48.0107 32.2823 47.3056 32.2823Z" fill="#367CFF"/>
<path d="M55.243 32.2823H51.9567C51.2516 32.2823 50.6801 32.8539 50.6801 33.559V36.8453C50.6801 37.5504 51.2516 38.1219 51.9567 38.1219H55.243C55.9481 38.1219 56.5196 37.5504 56.5196 36.8453V33.559C56.5196 32.8539 55.9481 32.2823 55.243 32.2823Z" fill="#367CFF"/>
<path d="M15.6715 32.3978H12.3852C11.6801 32.3978 11.1086 32.9694 11.1086 33.6744V36.9608C11.1086 37.6658 11.6801 38.2374 12.3852 38.2374H15.6715C16.3766 38.2374 16.9481 37.6658 16.9481 36.9608V33.6744C16.9481 32.9694 16.3766 32.3978 15.6715 32.3978Z" fill="#367CFF"/>
<path d="M23.6089 32.3978H20.3226C19.6176 32.3978 19.046 32.9694 19.046 33.6744V36.9608C19.046 37.6658 19.6176 38.2374 20.3226 38.2374H23.6089C24.314 38.2374 24.8856 37.6658 24.8856 36.9608V33.6744C24.8856 32.9694 24.314 32.3978 23.6089 32.3978Z" fill="#367CFF"/>
<path d="M31.5463 32.3978H28.2599C27.5549 32.3978 26.9833 32.9694 26.9833 33.6744V36.9608C26.9833 37.6658 27.5549 38.2374 28.2599 38.2374H31.5463C32.2513 38.2374 32.8229 37.6658 32.8229 36.9608V33.6744C32.8229 32.9694 32.2513 32.3978 31.5463 32.3978Z" fill="#367CFF"/>
<path d="M39.3682 39.5627H36.0819C35.3769 39.5627 34.8053 40.1342 34.8053 40.8393V44.1256C34.8053 44.8307 35.3769 45.4022 36.0819 45.4022H39.3682C40.0733 45.4022 40.6449 44.8307 40.6449 44.1256V40.8393C40.6449 40.1342 40.0733 39.5627 39.3682 39.5627Z" fill="#367CFF"/>
<path d="M15.556 39.5627H12.2697C11.5646 39.5627 10.993 40.1342 10.993 40.8393V44.1256C10.993 44.8307 11.5646 45.4022 12.2697 45.4022H15.556C16.261 45.4022 16.8326 44.8307 16.8326 44.1256V40.8393C16.8326 40.1342 16.261 39.5627 15.556 39.5627Z" fill="#367CFF"/>
<path d="M23.4934 39.5627H20.2071C19.502 39.5627 18.9305 40.1342 18.9305 40.8393V44.1256C18.9305 44.8307 19.502 45.4022 20.2071 45.4022H23.4934C24.1985 45.4022 24.77 44.8307 24.77 44.1256V40.8393C24.77 40.1342 24.1985 39.5627 23.4934 39.5627Z" fill="#367CFF"/>
<path d="M31.4308 39.5627H28.1445C27.4395 39.5627 26.8679 40.1342 26.8679 40.8393V44.1256C26.8679 44.8307 27.4395 45.4022 28.1445 45.4022H31.4308C32.1359 45.4022 32.7075 44.8307 32.7075 44.1256V40.8393C32.7075 40.1342 32.1359 39.5627 31.4308 39.5627Z" fill="#367CFF"/>
</g>
<path d="M67.928 3.34024V5.41647H7.51501V3.34024C7.51489 2.91492 7.59856 2.49374 7.76124 2.10076C7.92392 1.70778 8.16242 1.35069 8.46313 1.0499C8.76383 0.749112 9.12084 0.510507 9.51378 0.347715C9.90671 0.184924 10.3279 0.101135 10.7532 0.101135H64.6897C65.115 0.101184 65.5361 0.185004 65.929 0.347811C66.322 0.510617 66.679 0.749221 66.9797 1.05C67.2804 1.35078 67.5189 1.70784 67.6816 2.1008C67.8443 2.49376 67.9281 2.91492 67.928 3.34024Z" fill="#292A2E"/>
<path d="M31.3572 40.2087H28.2182C27.8292 40.2087 27.5139 40.524 27.5139 40.913V44.052C27.5139 44.441 27.8292 44.7563 28.2182 44.7563H31.3572C31.7462 44.7563 32.0615 44.441 32.0615 44.052V40.913C32.0615 40.524 31.7462 40.2087 31.3572 40.2087Z" fill="white"/>
<path d="M15.3276 30.6134L11.4521 29.9122C11.3423 29.8923 11.2449 29.8296 11.1812 29.7378C11.1176 29.6461 11.0931 29.5328 11.1129 29.423L11.7122 26.1114L12.9051 25.3172L16.1788 25.9097C16.2886 25.9296 16.386 25.9923 16.4497 26.084C16.5133 26.1757 16.5379 26.289 16.518 26.3988L15.8166 30.2742C15.8068 30.3286 15.7864 30.3805 15.7565 30.427C15.7266 30.4735 15.6878 30.5136 15.6424 30.5451C15.597 30.5766 15.5458 30.5989 15.4918 30.6106C15.4377 30.6223 15.3819 30.6233 15.3276 30.6134Z" fill="#367CFF"/>
<path opacity="0.29" d="M12.9051 25.3172L11.7122 26.1114L12.7309 26.3134L12.9051 25.3172Z" fill="#FFFFFA"/>
<g opacity="0.88">
<path d="M15.6305 28.3539C15.6266 28.354 15.6227 28.3537 15.6188 28.3529L11.9924 27.6823C11.9771 27.6795 11.9635 27.6707 11.9547 27.6578C11.9459 27.645 11.9425 27.6292 11.9453 27.6139C11.9482 27.5985 11.957 27.585 11.9698 27.5761C11.9826 27.5673 11.9985 27.5639 12.0138 27.5668L15.6402 28.2374C15.6544 28.2401 15.6672 28.2479 15.676 28.2595C15.6848 28.271 15.6891 28.2854 15.6879 28.2998C15.6868 28.3143 15.6803 28.3278 15.6698 28.3378C15.6592 28.3478 15.6454 28.3535 15.6309 28.3539H15.6305Z" fill="white"/>
<path d="M15.5005 29.1145C15.4966 29.1145 15.4926 29.1142 15.4887 29.1136L11.8624 28.4429C11.8546 28.4418 11.8471 28.4391 11.8403 28.435C11.8335 28.4308 11.8277 28.4254 11.8231 28.419C11.8185 28.4125 11.8152 28.4052 11.8135 28.3975C11.8117 28.3898 11.8116 28.3818 11.813 28.374C11.8145 28.3662 11.8175 28.3588 11.8218 28.3522C11.8262 28.3456 11.8319 28.34 11.8385 28.3356C11.8451 28.3312 11.8525 28.3283 11.8603 28.3268C11.8681 28.3254 11.8761 28.3256 11.8838 28.3273L15.5101 28.9979C15.5244 29.0005 15.5373 29.0083 15.5462 29.0199C15.5551 29.0314 15.5594 29.0459 15.5583 29.0604C15.5571 29.075 15.5506 29.0886 15.54 29.0985C15.5293 29.1085 15.5154 29.1142 15.5008 29.1145H15.5005Z" fill="white"/>
<path d="M13.3729 29.4239C13.3689 29.424 13.365 29.4237 13.3612 29.423L11.7527 29.1255C11.7448 29.1244 11.7373 29.1217 11.7305 29.1176C11.7238 29.1135 11.7179 29.108 11.7133 29.1016C11.7087 29.0952 11.7054 29.0879 11.7037 29.0801C11.702 29.0724 11.7018 29.0644 11.7032 29.0566C11.7047 29.0488 11.7077 29.0414 11.712 29.0348C11.7164 29.0282 11.7221 29.0226 11.7287 29.0182C11.7353 29.0139 11.7427 29.0109 11.7505 29.0094C11.7583 29.008 11.7663 29.0082 11.774 29.0099L13.3825 29.3075C13.3968 29.3101 13.4095 29.318 13.4184 29.3295C13.4272 29.341 13.4314 29.3554 13.4303 29.3699C13.4291 29.3843 13.4226 29.3979 13.4121 29.4078C13.4016 29.4178 13.3877 29.4235 13.3732 29.4239H13.3729Z" fill="white"/>
</g>
<path d="M15.6478 27.7357C15.6334 27.7357 15.6191 27.7344 15.605 27.7318L14.8203 27.5888C14.7894 27.5831 14.7598 27.5714 14.7334 27.5543C14.707 27.5373 14.6842 27.5151 14.6664 27.4892C14.6485 27.4633 14.636 27.4341 14.6295 27.4033C14.623 27.3725 14.6226 27.3408 14.6284 27.3099L14.7603 26.4767C14.7717 26.4149 14.8069 26.36 14.8584 26.324C14.9099 26.2879 14.9735 26.2735 15.0355 26.2839L15.8226 26.4185C15.8538 26.4238 15.8836 26.4352 15.9104 26.4521C15.9372 26.4691 15.9603 26.4912 15.9784 26.5171C15.9965 26.5431 16.0093 26.5724 16.016 26.6033C16.0227 26.6343 16.0232 26.6663 16.0174 26.6974L15.8831 27.5398C15.8729 27.5947 15.8437 27.6444 15.8008 27.6802C15.7578 27.716 15.7037 27.7356 15.6478 27.7357ZM14.9955 26.3733C14.9614 26.3734 14.9284 26.3853 14.9022 26.4071C14.876 26.4288 14.8581 26.459 14.8517 26.4924L14.7198 27.3256C14.7161 27.3446 14.7162 27.3642 14.7201 27.3831C14.724 27.4021 14.7316 27.4201 14.7425 27.4361C14.7534 27.4521 14.7674 27.4657 14.7836 27.4763C14.7998 27.4868 14.818 27.4941 14.837 27.4976L15.6217 27.6406C15.6596 27.6473 15.6987 27.6388 15.7304 27.617C15.7621 27.5951 15.784 27.5617 15.7914 27.5239L15.9258 26.6809C15.9294 26.6618 15.9292 26.6422 15.9251 26.6233C15.921 26.6043 15.9132 26.5864 15.9022 26.5705C15.8911 26.5545 15.877 26.541 15.8606 26.5306C15.8443 26.5202 15.826 26.5131 15.8069 26.5099L15.0198 26.3753C15.0118 26.374 15.0036 26.3733 14.9955 26.3733Z" fill="white"/>
<path d="M28.8542 43.9835C28.846 43.9835 28.8378 43.9835 28.8295 43.9823C28.7918 43.9789 28.7551 43.9676 28.7219 43.9492C28.6888 43.9309 28.6598 43.9058 28.6368 43.8756L27.8124 42.7913C27.7686 42.7337 27.7495 42.661 27.7592 42.5892C27.769 42.5174 27.8069 42.4525 27.8646 42.4087C27.9222 42.3648 27.9949 42.3457 28.0667 42.3555C28.1384 42.3653 28.2034 42.4032 28.2472 42.4608L28.8908 43.3073L31.3607 41.0526C31.3872 41.0285 31.4182 41.0097 31.4519 40.9975C31.4856 40.9853 31.5214 40.9799 31.5572 40.9815C31.5931 40.9832 31.6282 40.9919 31.6607 41.0071C31.6932 41.0223 31.7223 41.0438 31.7465 41.0703C31.7707 41.0968 31.7894 41.1277 31.8016 41.1615C31.8138 41.1952 31.8192 41.231 31.8176 41.2668C31.8159 41.3026 31.8073 41.3378 31.792 41.3703C31.7768 41.4027 31.7553 41.4319 31.7288 41.4561L29.0381 43.9118C28.9879 43.9578 28.9223 43.9834 28.8542 43.9835Z" fill="#367CFF"/>
<path d="M64.7612 12.6987L61.4944 14.8985C61.4486 14.9295 61.3971 14.9511 61.3429 14.9621C61.2887 14.9731 61.2328 14.9734 61.1785 14.9628C61.1242 14.9522 61.0725 14.931 61.0265 14.9004C60.9804 14.8698 60.9408 14.8304 60.9099 14.7845L59.0301 11.9932L59.3312 10.5921L62.091 8.73377C62.1369 8.70285 62.1884 8.68128 62.2426 8.67028C62.2968 8.65928 62.3527 8.65906 62.4069 8.66965C62.4612 8.68024 62.5129 8.70143 62.559 8.73199C62.6051 8.76256 62.6447 8.80191 62.6756 8.8478L64.8754 12.1145C64.9063 12.1603 64.9278 12.2118 64.9388 12.266C64.9498 12.3202 64.9499 12.376 64.9393 12.4303C64.9287 12.4845 64.9075 12.5361 64.877 12.5822C64.8464 12.6283 64.8071 12.6679 64.7612 12.6987Z" fill="#0CBC8B"/>
<path opacity="0.29" d="M59.3315 10.592L59.0305 11.9932L59.9014 11.4276L59.3315 10.592Z" fill="#FFFFFA"/>
<g opacity="0.88">
<path d="M63.4027 10.8679C63.3998 10.8707 63.3967 10.8732 63.3934 10.8754L60.3267 12.9235C60.3137 12.9312 60.2983 12.9337 60.2836 12.9303C60.2689 12.927 60.2561 12.9181 60.2477 12.9056C60.2394 12.893 60.2362 12.8777 60.2388 12.8629C60.2414 12.848 60.2496 12.8348 60.2617 12.8258L63.3285 10.7777C63.3406 10.7697 63.3553 10.7665 63.3696 10.7687C63.3839 10.7708 63.397 10.7782 63.4062 10.7894C63.4154 10.8006 63.4201 10.8148 63.4195 10.8293C63.4189 10.8438 63.4129 10.8575 63.4027 10.8679H63.4027Z" fill="white"/>
<path d="M63.8398 11.5037C63.837 11.5066 63.8339 11.5091 63.8306 11.5113L60.7638 13.5594C60.7508 13.5671 60.7354 13.5695 60.7207 13.5662C60.706 13.5628 60.6932 13.554 60.6848 13.5414C60.6765 13.5289 60.6733 13.5136 60.6759 13.4988C60.6785 13.4839 60.6867 13.4706 60.6988 13.4617L63.7656 11.4136C63.7777 11.4056 63.7924 11.4024 63.8067 11.4045C63.821 11.4067 63.8341 11.4141 63.8433 11.4253C63.8525 11.4365 63.8572 11.4507 63.8566 11.4652C63.856 11.4797 63.85 11.4934 63.8398 11.5037Z" fill="white"/>
<path d="M62.5308 13.2092C62.5279 13.212 62.5248 13.2145 62.5215 13.2167L61.1617 14.1252C61.1553 14.1299 61.148 14.1333 61.1403 14.1351C61.1325 14.1369 61.1245 14.1371 61.1167 14.1358C61.1088 14.1344 61.1013 14.1314 61.0947 14.1271C61.088 14.1227 61.0823 14.1171 61.0779 14.1104C61.0735 14.1038 61.0705 14.0963 61.069 14.0885C61.0676 14.0807 61.0678 14.0727 61.0695 14.0649C61.0713 14.0571 61.0746 14.0498 61.0793 14.0434C61.084 14.0369 61.0899 14.0315 61.0968 14.0275L62.4571 13.119C62.4692 13.111 62.4838 13.1078 62.4982 13.11C62.5125 13.1121 62.5255 13.1195 62.5347 13.1307C62.544 13.1419 62.5487 13.1561 62.5481 13.1706C62.5474 13.1851 62.5415 13.1988 62.5313 13.2092H62.5308Z" fill="white"/>
</g>
<path d="M65.5093 80H5.16062C5.1434 80 5.12688 79.9932 5.1147 79.981C5.10252 79.9688 5.09567 79.9523 5.09567 79.9351C5.09567 79.9178 5.10252 79.9013 5.1147 79.8891C5.12688 79.877 5.1434 79.8701 5.16062 79.8701H65.5093C65.5265 79.8701 65.5431 79.877 65.5552 79.8891C65.5674 79.9013 65.5743 79.9178 65.5743 79.9351C65.5743 79.9523 65.5674 79.9688 65.5552 79.981C65.5431 79.9932 65.5265 80 65.5093 80Z" fill="#292A2E"/>
<path d="M54.5145 75.9016C54.5145 75.9016 54.0955 78.0727 52.0623 78.1941C50.029 78.3154 50.47 79.9348 50.47 79.9348H58.2397V76.053L54.5145 75.9016Z" fill="#367CFF"/>
<path d="M56.911 36.289C56.911 36.289 56.8866 35.6363 56.8917 37.1171C56.911 42.6404 57.1924 48.9494 57.4266 52.6413C57.8029 58.5761 58.5823 77.2874 58.5823 77.2874L53.1057 77.2445L48.5287 36.0647L56.911 36.289Z" fill="#262626"/>
<path d="M51.0364 42.875C51.0364 42.875 50.8249 46.8833 50.7859 47.8243C50.6952 50.0006 50.6139 52.2679 50.6139 54.8226L49.8588 48.1113C49.8588 48.1113 50.4475 46.0124 51.0364 42.875Z" fill="#0A0A0A"/>
<path d="M44.4977 75.9016C44.4977 75.9016 44.0787 78.0727 42.0456 78.1941C40.0124 78.3154 40.4533 79.9348 40.4533 79.9348H48.2229V76.053L44.4977 75.9016Z" fill="#367CFF"/>
<path d="M42.9531 36.718C42.9531 36.718 42.4081 55.7811 42.4744 56.7038L43.2596 77.1441L48.8376 77.2369L49.2761 55.7727C49.2761 55.7727 49.3429 49.8515 50.7735 44.3533C51.5054 41.5315 51.9459 38.642 52.0881 35.7302L42.9531 36.718Z" fill="#262626"/>
<path d="M56.9664 36.2885L56.9831 36.2894C56.9831 36.2894 56.971 35.9675 56.9664 36.2885Z" fill="#333333"/>
<path d="M46.3665 20.0497C46.3831 20.0476 46.5667 23.0952 50.1073 22.8295C52.5584 22.6459 53.4328 20.0453 53.4885 20.0453C53.2242 19.9897 52.7792 19.9076 52.6618 19.8449C52.2759 19.6375 51.7261 19.4217 51.6017 18.6722C51.5301 18.2402 51.6517 16.0302 51.6142 15.5931L47.924 16.4329C47.9766 17.356 48.3445 19.496 47.0549 19.8752C46.8404 19.9373 46.6091 19.995 46.3665 20.0497Z" fill="#E98862"/>
<path d="M48.0278 17.8726C49.5136 17.9873 51.4211 17.3568 51.7802 15.374L52.1043 13.5849C52.4634 11.6022 51.7131 9.80628 49.8463 9.46817C47.9794 9.12997 46.2926 10.4846 45.9338 12.4673L45.7903 13.2593C45.7458 13.5321 45.7199 13.8077 45.7128 14.084C45.6888 14.8142 45.6551 15.9248 46.0164 16.7406C46.3575 17.5108 47.0785 17.7994 48.0278 17.8726Z" fill="#E98862"/>
<path d="M51.36 9.36659C50.7702 9.18262 50.1583 9.07852 49.5408 9.05706C49.5206 8.94921 49.4746 8.84784 49.4067 8.76158C49.3389 8.67532 49.2512 8.60671 49.1512 8.5616C48.8247 8.43411 48.426 8.63944 48.1607 9.03526C48.0222 8.79857 47.8057 8.61745 47.5483 8.523C46.8174 8.29549 46.7812 9.34534 46.7812 9.34534C46.7812 9.34534 45.6224 8.20187 45.5862 9.66025C45.5424 11.4248 45.8666 11.9428 46.1031 12.0726C46.5704 12.3307 46.9182 12.287 47.1031 12.6665C47.6631 13.8159 47.1143 17.0535 47.7619 17.4589C48.7547 18.0799 50.7874 18.1013 51.4477 18.0542C51.7016 18.0356 51.9394 17.7416 52.0462 17.5106C52.3916 16.7648 53.1618 15.0739 53.3761 14.3745C53.7725 13.0846 53.7427 10.1446 51.36 9.36659Z" fill="#0C0C0C"/>
<path d="M47.319 16.3027C47.8923 16.2405 48.2904 15.5768 48.2283 15.0037C48.1663 14.4306 47.6672 14.1648 47.0939 14.2271L46.8403 14.6432L46.8264 16.3563L47.319 16.3027Z" fill="#E98862"/>
<path d="M42.2344 26.2394C42.3397 27.4764 42.8519 35.1939 42.9531 36.7176H56.9053C56.9841 35.3434 57.338 29.3342 57.6369 26.6469C57.9223 24.0826 58.4819 22.7987 58.0716 22.0406C57.4012 20.8015 55.5692 20.0856 54.3199 19.9164C53.557 19.8132 52.4097 19.7391 52.4097 19.7391H47.0374C46.5271 19.7391 43.552 19.9793 42.8944 20.4857C41.7446 21.3717 42.011 23.6183 42.2344 26.2394Z" fill="#367CFF"/>
<path d="M42.0417 24.69C42.0299 24.69 42.0184 24.6854 42.0098 24.6773C42.0012 24.6691 41.996 24.658 41.9953 24.6462L41.8828 22.6819C41.8821 22.6696 41.8863 22.6576 41.8945 22.6484C41.9026 22.6392 41.9141 22.6336 41.9264 22.6329C41.9386 22.6324 41.9506 22.6366 41.9598 22.6448C41.9689 22.6529 41.9745 22.6643 41.9754 22.6765L42.0879 24.6409C42.0883 24.647 42.0874 24.6531 42.0854 24.6588C42.0834 24.6646 42.0803 24.6699 42.0762 24.6744C42.0722 24.679 42.0673 24.6827 42.0618 24.6853C42.0563 24.688 42.0503 24.6895 42.0442 24.6899L42.0417 24.69Z" fill="#0C0C0C"/>
<path d="M59.9217 36.6371C60.332 36.637 60.7363 36.5378 61.1001 36.3479C61.4638 36.158 61.7763 35.8831 62.011 35.5464C62.2456 35.2098 62.3955 34.8214 62.4478 34.4144C62.5001 34.0074 62.4533 33.5938 62.3113 33.2087C62.1672 32.8178 58.788 23.8694 58.1447 22.2114L53.3813 24.1413C53.7431 25.0735 55.0535 28.6071 56.1064 31.4537L54.3572 31.2636L53.8066 36.3282L59.6461 36.6221C59.7376 36.6321 59.8296 36.6371 59.9217 36.6371Z" fill="#367CFF"/>
<path d="M57.2032 26.6993L56.8604 36.7167L56.9531 36.7199L57.2959 26.7025L57.2032 26.6993Z" fill="#0C0C0C"/>
<path d="M32.0375 16.0146L27.8135 17.8777C27.722 17.918 27.6183 17.9203 27.5251 17.8842C27.4319 17.848 27.3568 17.7763 27.3165 17.6849L25.752 14.1376L26.3626 12.6479L29.8703 11.1007C29.9156 11.0807 29.9643 11.0699 30.0138 11.0688C30.0633 11.0676 30.1125 11.0763 30.1587 11.0942C30.2048 11.1121 30.247 11.1389 30.2828 11.1731C30.3186 11.2073 30.3473 11.2482 30.3672 11.2935L32.2303 15.5176C32.2707 15.6091 32.273 15.7128 32.2368 15.806C32.2007 15.8992 32.129 15.9742 32.0375 16.0146Z" fill="#0CBC8B"/>
<path opacity="0.29" d="M26.3626 12.6481L25.752 14.1378L26.8272 13.6849L26.3626 12.6481Z" fill="#FFFFFA"/>
<g opacity="0.88">
<path d="M30.489 13.0416C30.4854 13.0442 30.4815 13.0464 30.4774 13.0481L26.6802 14.7056C26.6645 14.7111 26.6473 14.7104 26.6321 14.7037C26.6169 14.6971 26.6047 14.685 26.598 14.6697C26.5914 14.6545 26.5907 14.6374 26.5961 14.6217C26.6015 14.606 26.6126 14.5929 26.6273 14.585L30.4247 12.9275C30.4396 12.9211 30.4564 12.9204 30.4719 12.9257C30.4873 12.9309 30.5003 12.9417 30.5082 12.9559C30.5162 12.9701 30.5187 12.9867 30.5151 13.0026C30.5116 13.0185 30.5023 13.0325 30.489 13.042V13.0416Z" fill="white"/>
<path d="M30.8101 13.7599C30.8065 13.7625 30.8026 13.7646 30.7986 13.7664L27.0012 15.4239C26.9854 15.4296 26.9681 15.4291 26.9527 15.4225C26.9373 15.4159 26.9249 15.4037 26.9182 15.3883C26.9115 15.373 26.9109 15.3556 26.9165 15.3398C26.9221 15.324 26.9335 15.311 26.9484 15.3033L30.7457 13.6458C30.7607 13.6391 30.7777 13.6383 30.7932 13.6434C30.8088 13.6486 30.8219 13.6594 30.83 13.6737C30.838 13.688 30.8405 13.7048 30.8368 13.7208C30.8331 13.7369 30.8236 13.7509 30.8101 13.7603V13.7599Z" fill="white"/>
<path d="M31.1676 14.5494C31.164 14.5519 31.1601 14.5541 31.1561 14.5559L27.3587 16.2134C27.3429 16.2191 27.3256 16.2186 27.3102 16.212C27.2948 16.2054 27.2825 16.1932 27.2757 16.1778C27.269 16.1625 27.2684 16.1451 27.274 16.1293C27.2796 16.1135 27.291 16.1005 27.3059 16.0928L31.1032 14.4353C31.1182 14.4286 31.1352 14.4277 31.1508 14.4329C31.1664 14.4381 31.1795 14.4489 31.1875 14.4632C31.1956 14.4775 31.198 14.4943 31.1943 14.5103C31.1906 14.5263 31.1811 14.5404 31.1676 14.5498V14.5494Z" fill="white"/>
<path d="M29.382 16.1762C29.3784 16.1787 29.3745 16.1809 29.3704 16.1827L27.6861 16.9178C27.6704 16.9232 27.6533 16.9226 27.6381 16.9159C27.6228 16.9092 27.6107 16.8971 27.604 16.8819C27.5973 16.8667 27.5966 16.8495 27.6021 16.8338C27.6075 16.8181 27.6186 16.805 27.6332 16.7972L29.3177 16.062C29.3326 16.0556 29.3494 16.055 29.3649 16.0602C29.3803 16.0654 29.3933 16.0762 29.4012 16.0904C29.4092 16.1046 29.4117 16.1212 29.4081 16.1371C29.4046 16.153 29.3953 16.1671 29.382 16.1765V16.1762Z" fill="white"/>
</g>
<path d="M28.5464 15.6908C28.5271 15.6397 28.4976 15.5931 28.4597 15.5537C28.4218 15.5144 28.3763 15.4831 28.3259 15.462C28.2756 15.4408 28.2214 15.4301 28.1668 15.4305C28.1122 15.431 28.0582 15.4425 28.0082 15.4645C27.913 15.5105 27.8387 15.5908 27.8004 15.6894C27.7621 15.7879 27.7626 15.8974 27.8018 15.9955L27.9356 16.5495C27.9639 16.6666 27.9483 16.7901 27.8918 16.8966C27.8353 17.003 27.7418 17.0852 27.6289 17.1274C27.5183 17.1689 27.3964 17.1692 27.2855 17.1285C27.1746 17.0877 27.082 17.0085 27.0246 16.9052C27.0246 16.9052 26.1915 15.1454 26.1757 15.0737C26.039 15.2071 25.8007 15.5351 25.7518 15.7823C25.75 15.7836 25.993 17.7586 26.1289 17.8978L27.5383 20.0717C28.1145 20.6621 30.0486 19.6798 30.0486 19.6798L28.5464 15.6908Z" fill="#E98862"/>
<path d="M34.3378 31.9232C33.8658 31.9232 33.4018 31.8011 32.9909 31.5688C32.5801 31.3366 32.2362 31.002 31.9928 30.5976L25.9254 20.5185L30.6155 17.6954L35.2278 25.358L42.8947 20.4868L46.143 24.8421L35.8192 31.4882C35.3773 31.7724 34.8631 31.9234 34.3378 31.9232Z" fill="#367CFF"/>
<path d="M42.3121 27.3517C42.3017 27.3517 42.2916 27.3482 42.2834 27.3417C42.2753 27.3353 42.2695 27.3263 42.267 27.3162C42.2646 27.3061 42.2656 27.2955 42.2699 27.286C42.2742 27.2766 42.2815 27.2688 42.2908 27.2641L43.6156 26.5804C43.6265 26.5748 43.6392 26.5737 43.651 26.5775C43.6627 26.5812 43.6724 26.5894 43.6781 26.6004C43.6837 26.6113 43.6848 26.6241 43.6811 26.6358C43.6773 26.6475 43.6691 26.6573 43.6581 26.6629L42.3334 27.3465C42.3268 27.3499 42.3195 27.3516 42.3121 27.3517Z" fill="#0C0C0C"/>
<path d="M46.2977 20.0286L46.9554 19.0005C46.9842 18.9554 47.0239 18.9183 47.0708 18.8927C47.1177 18.867 47.1703 18.8535 47.2237 18.8535H52.1814C52.2261 18.8535 52.2702 18.8629 52.311 18.8811C52.3518 18.8993 52.3883 18.9258 52.4182 18.959L53.3812 20.0286H46.2977Z" fill="#367CFF"/>
<path d="M8.00375 61.2081L7.84354 61.2256L9.82155 79.3013L9.98176 79.2838L8.00375 61.2081Z" fill="#292A2E"/>
<path d="M13.1268 69.0994L12.1537 78.7261L12.3141 78.7423L13.2872 69.1156L13.1268 69.0994Z" fill="#292A2E"/>
<path d="M14.8002 77.5624H7.57974V79.9057H14.8002V77.5624Z" fill="#292A2E"/>
<path opacity="0.2" d="M14.8002 77.5624H7.57974V79.9057H14.8002V77.5624Z" fill="white"/>
<path d="M19.1531 73.2478C20.5209 71.4298 19.8689 68.6312 17.6967 66.9968C15.5245 65.3625 12.6548 65.5113 11.287 67.3292C9.91915 69.1472 10.5712 71.9458 12.7434 73.5802C14.9156 75.2145 17.7853 75.0657 19.1531 73.2478Z" fill="#0CBC8B"/>
<path opacity="0.2" d="M19.1531 73.2478C20.5209 71.4298 19.8689 68.6312 17.6967 66.9968C15.5245 65.3625 12.6548 65.5113 11.287 67.3292C9.91915 69.1472 10.5712 71.9458 12.7434 73.5802C14.9156 75.2145 17.7853 75.0657 19.1531 73.2478Z" fill="white"/>
<path opacity="0.5" d="M19.1528 73.248C19.061 73.3707 18.9608 73.4868 18.8529 73.5956C17.3472 74.5576 15.1247 74.4062 13.3616 73.0794C11.1896 71.4453 10.5377 68.6467 11.9057 66.8287C11.9977 66.7064 12.0977 66.5903 12.205 66.4812C13.7114 65.5185 15.9331 65.6707 17.697 66.9968C19.8689 68.6316 20.5208 71.4302 19.1528 73.248Z" fill="white"/>
<path d="M9.07617 66.3506C11.228 64.6896 11.8129 61.8409 10.3825 59.9878C8.95208 58.1348 6.0481 57.9791 3.89626 59.6401C1.74441 61.3012 1.15956 64.1499 2.58995 66.0029C4.02035 67.856 6.92432 68.0117 9.07617 66.3506Z" fill="#0CBC8B"/>
<path opacity="0.2" d="M8.39513 65.874C6.72863 67.1612 4.61074 67.3574 3.07553 66.5194C2.89785 66.363 2.73557 66.1899 2.59092 66.0024C1.15981 64.1499 1.74463 61.3008 3.89639 59.6401C5.56289 58.3537 7.68079 58.1568 9.21525 58.994C9.39329 59.1505 9.5558 59.3239 9.70052 59.5117C11.1313 61.3642 10.5464 64.2134 8.39513 65.874Z" fill="white"/>
</svg>
