<svg width="250" height="145" viewBox="0 0 250 145" fill="none" xmlns="http://www.w3.org/2000/svg">
<g clip-path="url(#clip0_393_7111)">
<path d="M158.444 139.295L131.751 139.277C131.244 139.276 130.745 139.14 130.308 138.881C129.871 138.622 129.512 138.251 129.267 137.806C129.023 137.361 128.902 136.858 128.918 136.351C128.934 135.843 129.086 135.349 129.358 134.921L142.718 113.87C142.975 113.466 143.329 113.134 143.748 112.904C144.167 112.674 144.637 112.553 145.115 112.553C145.593 112.554 146.064 112.675 146.482 112.906C146.901 113.136 147.255 113.469 147.51 113.873L160.842 134.942C161.114 135.371 161.265 135.865 161.28 136.372C161.296 136.88 161.175 137.382 160.93 137.827C160.684 138.272 160.325 138.642 159.887 138.901C159.45 139.159 158.952 139.295 158.444 139.295V139.295Z" fill="#F4F4F4"/>
<path d="M143.031 133.815C143.048 133.408 143.184 133.014 143.422 132.684C143.66 132.353 143.991 132.1 144.372 131.956C144.753 131.811 145.168 131.782 145.566 131.872C145.963 131.962 146.325 132.166 146.608 132.46C146.89 132.754 147.079 133.125 147.152 133.526C147.226 133.927 147.179 134.34 147.019 134.715C146.86 135.09 146.593 135.409 146.253 135.634C145.913 135.858 145.514 135.978 145.107 135.978C144.827 135.977 144.55 135.92 144.293 135.81C144.035 135.7 143.803 135.54 143.609 135.338C143.415 135.136 143.264 134.897 143.165 134.635C143.066 134.374 143.02 134.095 143.031 133.815V133.815ZM143.507 123.126L143.393 120.016L146.841 120.019L146.724 123.128L146.239 130.284H143.981L143.507 123.126Z" fill="white"/>
<path d="M240.369 135.229L215.889 135.212C215.423 135.212 214.966 135.086 214.565 134.849C214.165 134.612 213.835 134.271 213.611 133.863C213.387 133.455 213.277 132.994 213.291 132.528C213.306 132.063 213.446 131.61 213.695 131.217L225.948 111.911C226.183 111.541 226.508 111.236 226.892 111.025C227.276 110.814 227.708 110.703 228.146 110.703C228.585 110.704 229.016 110.815 229.4 111.026C229.784 111.238 230.108 111.543 230.343 111.914L242.57 131.236C242.819 131.63 242.958 132.083 242.972 132.549C242.986 133.014 242.875 133.475 242.65 133.883C242.425 134.291 242.095 134.631 241.693 134.868C241.292 135.105 240.835 135.229 240.369 135.229V135.229Z" fill="#F4F4F4"/>
<path d="M226.234 130.203C226.249 129.83 226.374 129.469 226.593 129.166C226.811 128.863 227.114 128.631 227.464 128.499C227.813 128.366 228.194 128.34 228.558 128.422C228.923 128.504 229.255 128.692 229.514 128.962C229.772 129.231 229.946 129.571 230.013 129.939C230.08 130.306 230.038 130.685 229.891 131.029C229.745 131.373 229.5 131.666 229.188 131.872C228.876 132.078 228.511 132.187 228.137 132.187C227.881 132.187 227.627 132.134 227.391 132.034C227.154 131.933 226.941 131.785 226.763 131.6C226.586 131.415 226.447 131.196 226.356 130.955C226.265 130.715 226.224 130.459 226.234 130.203V130.203ZM226.67 120.4L226.566 117.548L229.728 117.55L229.621 120.402L229.176 126.965H227.106L226.67 120.4Z" fill="white"/>
<path d="M141.701 58.582L112.934 58.5626C112.387 58.5618 111.85 58.4142 111.379 58.1352C110.908 57.8562 110.521 57.456 110.258 56.9764C109.994 56.4967 109.864 55.9552 109.881 55.4082C109.899 54.8612 110.062 54.3289 110.355 53.8666L124.754 31.1798C125.03 30.745 125.412 30.3871 125.863 30.1393C126.315 29.8914 126.822 29.7616 127.337 29.762C127.852 29.7623 128.359 29.8928 128.81 30.1412C129.261 30.3897 129.642 30.7481 129.918 31.1832L144.287 53.8904C144.579 54.353 144.741 54.8855 144.758 55.4324C144.774 55.9793 144.643 56.5205 144.379 56.9997C144.115 57.4789 143.727 57.8785 143.256 58.1568C142.785 58.4351 142.248 58.5819 141.701 58.582Z" fill="#F4F4F4"/>
<path d="M125.091 52.6747C125.109 52.2359 125.255 51.812 125.512 51.4558C125.769 51.0996 126.125 50.8268 126.536 50.6714C126.946 50.5159 127.394 50.4846 127.822 50.5814C128.251 50.6781 128.641 50.8987 128.945 51.2157C129.249 51.5326 129.453 51.932 129.532 52.364C129.611 52.796 129.561 53.2417 129.389 53.6456C129.216 54.0495 128.929 54.3938 128.562 54.6357C128.196 54.8776 127.766 55.0063 127.327 55.006C127.025 55.0055 126.727 54.9442 126.449 54.8256C126.172 54.7071 125.921 54.5338 125.713 54.3161C125.504 54.0985 125.341 53.8409 125.234 53.5588C125.127 53.2768 125.079 52.9761 125.091 52.6747V52.6747ZM125.603 41.1555L125.479 37.8047L129.196 37.8069L129.069 41.1579L128.547 48.8701H126.113L125.603 41.1555Z" fill="white"/>
<path d="M210.419 82.5394L183.51 82.5212C182.998 82.5208 182.495 82.383 182.055 82.1221C181.614 81.8613 181.252 81.4869 181.006 81.0382C180.759 80.5895 180.638 80.0828 180.654 79.5711C180.67 79.0594 180.823 78.5615 181.098 78.1292L194.567 56.9074C194.826 56.5005 195.183 56.1655 195.605 55.9335C196.028 55.7015 196.502 55.58 196.984 55.5803C197.466 55.5807 197.94 55.7028 198.362 55.9354C198.784 56.168 199.14 56.5035 199.398 56.9108L212.839 78.1505C213.112 78.5833 213.265 79.0816 213.28 79.5935C213.296 80.1054 213.173 80.612 212.926 81.0604C212.679 81.5088 212.316 81.8827 211.875 82.1428C211.434 82.403 210.931 82.5399 210.419 82.5394V82.5394Z" fill="#F4F4F4"/>
<path d="M194.881 77.0153C194.897 76.6049 195.035 76.2084 195.275 75.8753C195.515 75.5421 195.848 75.287 196.232 75.1416C196.617 74.9962 197.035 74.9669 197.436 75.0574C197.836 75.1479 198.202 75.3542 198.486 75.6507C198.77 75.9471 198.961 76.3206 199.035 76.7247C199.109 77.1288 199.062 77.5457 198.901 77.9235C198.74 78.3013 198.471 78.6234 198.128 78.8497C197.786 79.0761 197.384 79.1966 196.973 79.1964C196.691 79.196 196.412 79.1387 196.152 79.0278C195.893 78.9169 195.658 78.7548 195.463 78.5511C195.267 78.3475 195.115 78.1065 195.015 77.8426C194.915 77.5787 194.869 77.2973 194.881 77.0153V77.0153ZM195.36 66.2391L195.245 63.1042L198.722 63.1067L198.603 66.2412L198.115 73.4563H195.838L195.36 66.2391Z" fill="white"/>
<path d="M171.521 68.0598C171.383 67.7858 171.163 67.5615 170.892 67.418C170.621 67.2745 170.311 67.2188 170.007 67.2587C170.01 67.2316 170.004 67.2044 169.99 67.1808C169.976 67.1626 169.957 67.1485 169.936 67.1398C169.915 67.1311 169.892 67.1282 169.869 67.1314L170.895 66.3958C171.202 66.1857 171.423 65.8715 171.516 65.5113C171.61 65.1511 171.569 64.7693 171.403 64.4365C171.228 64.1132 170.94 63.8663 170.593 63.7438C170.247 63.6212 169.867 63.6317 169.528 63.7732C169.53 63.7587 169.52 63.7448 169.518 63.7299L169.94 63.4275C170.228 63.2283 170.439 62.9355 170.537 62.5988C170.634 62.262 170.612 61.9019 170.475 61.5794C170.384 61.379 170.25 61.2011 170.083 61.0587C169.916 60.9162 169.719 60.8127 169.506 60.7556C169.294 60.6985 169.072 60.6892 168.855 60.7285C168.639 60.7677 168.434 60.8545 168.255 60.9825L167.282 61.6801C167.279 61.6742 167.282 61.6674 167.278 61.6622C167.274 61.6569 167.264 61.6548 167.258 61.6489C167.482 61.3975 167.613 61.0777 167.631 60.7418C167.649 60.4059 167.552 60.074 167.356 59.8005C166.896 59.0615 165.836 59.2135 165.207 59.6636L159.48 63.6181L160.504 61.8948C160.71 61.5631 160.782 61.1655 160.707 60.7824C160.631 60.3992 160.413 60.0591 160.096 59.8308C159.928 59.7186 159.74 59.6417 159.541 59.6048C159.343 59.568 159.14 59.5719 158.943 59.6164C158.746 59.6609 158.561 59.7451 158.398 59.8637C158.235 59.9823 158.098 60.1329 157.995 60.3062L152.405 69.7166C151.749 70.8205 151.55 72.1366 151.849 73.3853C152.148 74.634 152.923 75.7168 154.007 76.4037V76.4037C155.266 77.2003 156.733 77.603 158.221 77.5603C159.71 77.5176 161.152 77.0314 162.362 76.1639L171.013 69.9644C171.299 69.7505 171.506 69.4461 171.598 69.1005C171.69 68.7548 171.663 68.3881 171.521 68.0598V68.0598Z" fill="#E98862"/>
<g opacity="0.25">
<path d="M161.614 65.5913C161.635 65.62 161.667 65.6393 161.702 65.645C161.737 65.6508 161.773 65.6426 161.803 65.6222L167.244 61.8531C167.261 61.8435 167.275 61.8308 167.286 61.8156C167.297 61.8004 167.304 61.7831 167.308 61.7648C167.312 61.7465 167.313 61.7276 167.309 61.7092C167.306 61.6908 167.298 61.6733 167.288 61.6578C167.277 61.6424 167.263 61.6293 167.248 61.6193C167.232 61.6093 167.214 61.6027 167.195 61.5999C167.177 61.5971 167.158 61.5981 167.14 61.603C167.122 61.6078 167.105 61.6162 167.09 61.6279L161.648 65.3969C161.618 65.4177 161.598 65.4494 161.592 65.4851C161.585 65.5208 161.593 65.5577 161.614 65.5876L161.614 65.5913Z" fill="#0C0C0C"/>
</g>
<g opacity="0.25">
<path d="M163.21 68.0373C163.231 68.066 163.263 68.0853 163.298 68.091C163.333 68.0968 163.369 68.0886 163.399 68.0681L169.472 63.8616C169.502 63.8409 169.522 63.8092 169.528 63.7734C169.535 63.7377 169.527 63.7009 169.506 63.671C169.485 63.6421 169.453 63.6225 169.418 63.6161C169.382 63.6096 169.346 63.6169 169.316 63.6364L163.243 67.8436C163.213 67.8643 163.192 67.896 163.186 67.9317C163.179 67.9674 163.187 68.0043 163.208 68.0342L163.21 68.0373Z" fill="#0C0C0C"/>
</g>
<g opacity="0.25">
<path d="M164.923 70.6962C164.945 70.7249 164.976 70.7442 165.011 70.75C165.047 70.7557 165.083 70.7475 165.112 70.7271L169.957 67.3717C169.985 67.3504 170.004 67.3189 170.01 67.2838C170.015 67.2488 170.007 67.2129 169.987 67.1837C169.967 67.1545 169.936 67.1344 169.901 67.1274C169.866 67.1205 169.83 67.1273 169.8 67.1464L164.956 70.5019C164.941 70.5121 164.928 70.5252 164.919 70.5403C164.909 70.5555 164.902 70.5724 164.899 70.5901C164.896 70.6078 164.896 70.6259 164.9 70.6435C164.904 70.6611 164.911 70.6777 164.922 70.6925L164.923 70.6962Z" fill="#0C0C0C"/>
</g>
<path d="M149.941 66.3252L136.027 98.453L116.831 72.1809L100.197 87.1776L128.604 123.968L128.79 124.229C129.927 125.787 131.441 127.029 133.191 127.839C134.941 128.649 136.868 129 138.792 128.859C140.715 128.719 142.57 128.091 144.184 127.034C145.797 125.978 147.115 124.529 148.013 122.822L168.019 76.38L149.941 66.3252Z" fill="#367CFF"/>
<path d="M134.419 101.815C134.383 101.815 134.348 101.805 134.317 101.788C134.286 101.771 134.26 101.745 134.241 101.715C134.222 101.684 134.212 101.65 134.211 101.614C134.209 101.578 134.217 101.543 134.233 101.511L135.843 98.3581C135.87 98.3121 135.913 98.278 135.964 98.263C136.015 98.2481 136.07 98.2532 136.118 98.2775C136.165 98.3018 136.202 98.3434 136.219 98.3936C136.237 98.4439 136.235 98.4991 136.213 98.5478L134.604 101.701C134.587 101.735 134.56 101.764 134.527 101.784C134.495 101.804 134.457 101.815 134.419 101.815Z" fill="#0C0C0C"/>
<path d="M66.2531 35.271C66.2531 35.271 64.4346 44.9607 61.8136 48.2416C54.2677 57.6869 51.0624 68.9448 56.6811 75.6979C62.2998 82.4511 102.697 87.3654 107.407 73.9404C111.373 62.6377 105.991 60.7281 105.791 50.9894C105.7 46.5826 105.111 37.2949 105.111 37.2949" fill="#0A0A0A"/>
<path d="M99.0261 68.8196C98.956 68.8107 98.1765 81.7452 83.1499 80.6175C72.7472 79.8384 69.0383 68.8014 68.7998 68.8014C69.9213 68.5629 71.8101 68.2163 72.3082 67.9506C73.9455 67.0704 75.9731 66.1547 76.5011 62.9735C76.8054 61.14 76.2892 51.7589 76.448 49.9053L92.416 53.4695C92.1929 57.3872 90.6312 66.4695 96.1047 68.0773C97.0155 68.3429 97.9967 68.5876 99.0261 68.8196Z" fill="#E98862"/>
<path opacity="0.52" d="M92.6398 64.3653C92.3896 63.5592 92.2285 62.7282 92.1594 61.887C91.9838 59.9675 92.0188 58.0346 92.2638 56.1228C89.0183 55.6847 85.9608 54.3451 83.4385 52.2563C83.142 53.3512 81.5114 58.1361 81.9627 59.1767C82.8163 61.144 86.8264 64.3653 92.6398 64.3653Z" fill="#0C0C0C"/>
<path d="M89.8055 61.2401C83.4821 61.0976 75.693 57.6304 75.0127 49.1054L74.3992 41.4128C73.7195 32.8881 77.6449 25.62 85.6712 24.9795C93.6975 24.3391 100.249 30.7713 100.929 39.2959L101.201 42.7014C101.462 45.9728 101.087 61.4943 89.8055 61.2401Z" fill="#E98862"/>
<path opacity="0.52" d="M93.5429 49.9249H93.5587C93.884 49.8962 94.2075 49.8499 94.5278 49.7861C95.0064 49.6873 95.64 49.5065 95.6048 49.0802C95.5662 48.5945 93.8176 43.4596 93.618 42.8757C93.5996 42.826 93.5624 42.7855 93.5146 42.7628C93.4667 42.7401 93.4119 42.7369 93.3617 42.7541C93.3116 42.7712 93.2701 42.8072 93.2461 42.8544C93.2221 42.9017 93.2176 42.9564 93.2334 43.007C93.9798 45.194 95.1738 48.7842 95.1998 49.1126C95.1315 49.2554 94.3332 49.455 93.5262 49.5195C93.4738 49.5236 93.4249 49.5479 93.39 49.5872C93.3551 49.6266 93.3368 49.678 93.3389 49.7305C93.3411 49.7831 93.3636 49.8328 93.4016 49.8692C93.4396 49.9055 93.4903 49.9257 93.5429 49.9255V49.9249Z" fill="#0C0C0C"/>
<path opacity="0.52" d="M92.2306 52.1185C90.9295 52.1431 89.6524 52.473 88.5023 53.0818C88.4542 53.1061 88.4177 53.1484 88.4008 53.1996C88.384 53.2507 88.3881 53.3065 88.4124 53.3546C88.4366 53.4027 88.479 53.4392 88.5302 53.4561C88.5813 53.4729 88.6371 53.4688 88.6852 53.4445C91.1672 52.1927 93.4945 52.2035 95.4152 53.4754C95.4539 53.5022 95.4941 53.5271 95.5353 53.5499C95.5836 53.5723 95.6387 53.575 95.6889 53.5574C95.739 53.5397 95.7803 53.503 95.8037 53.4552C95.8272 53.4075 95.831 53.3524 95.8143 53.3019C95.7976 53.2514 95.7618 53.2094 95.7145 53.185C95.6994 53.1766 95.6744 53.1597 95.6398 53.1365C94.63 52.4655 93.443 52.1111 92.2306 52.1185V52.1185Z" fill="#0C0C0C"/>
<path d="M67.8229 43.3621L75.0135 42.8295C80.5868 41.2443 83.1986 32.1738 83.1986 32.1738C83.1986 32.1738 89.0036 39.1954 105.111 37.2948C105.111 37.2948 104.323 15.0324 80.4123 18.9029C72.7023 20.1507 66.5142 27.1173 66.0962 37.2747C65.8046 44.3931 67.8229 43.3621 67.8229 43.3621Z" fill="#0A0A0A"/>
<path d="M75.7187 51.6628C73.278 51.8574 71.0938 49.4057 70.8992 46.9669C70.7045 44.5281 72.5746 43.0245 75.0137 42.8298L76.4014 44.364L77.8161 51.496L75.7187 51.6628Z" fill="#E98862"/>
<path d="M95.4891 39.0354C96.235 38.6604 97.0681 38.4929 97.901 38.5504C98.3112 38.5762 98.7152 38.6636 99.0994 38.8096C99.4802 38.9523 99.8416 39.1424 100.175 39.3756C100.221 39.406 100.254 39.4533 100.265 39.5074C100.277 39.5614 100.267 39.618 100.238 39.665C100.209 39.712 100.163 39.7456 100.109 39.7589C100.055 39.7721 99.9982 39.7638 99.9505 39.7358L99.9363 39.7274C99.6262 39.5311 99.2926 39.3746 98.9434 39.2615C98.5985 39.1478 98.2384 39.087 97.8754 39.0811C97.1557 39.0639 96.4443 39.2374 95.8135 39.5841L95.7928 39.5958C95.7195 39.6358 95.6336 39.6454 95.5533 39.6227C95.473 39.6 95.4048 39.5467 95.3634 39.4743C95.322 39.4019 95.3106 39.3161 95.3316 39.2354C95.3527 39.1547 95.4046 39.0854 95.4761 39.0425L95.4891 39.0354Z" fill="#0C0C0C"/>
<path d="M89.0412 39.8377C88.3644 39.5927 87.6348 39.531 86.9265 39.6589C86.5686 39.7206 86.2221 39.8362 85.8989 40.0018C85.5713 40.1673 85.266 40.3734 84.99 40.6154L84.9773 40.6252C84.9563 40.6435 84.9318 40.6574 84.9053 40.6662C84.8789 40.675 84.8509 40.6785 84.8231 40.6765C84.7953 40.6745 84.7682 40.6671 84.7432 40.6546C84.7183 40.6421 84.6961 40.6248 84.6778 40.6038C84.6596 40.5827 84.6456 40.5582 84.6368 40.5318C84.628 40.5053 84.6245 40.4774 84.6265 40.4496C84.6285 40.4217 84.636 40.3946 84.6484 40.3697C84.6609 40.3447 84.6782 40.3225 84.6993 40.3043C84.9927 40.0226 85.3204 39.779 85.6746 39.5792C86.0314 39.3758 86.4167 39.2273 86.8177 39.1386C87.6318 38.9529 88.4808 38.99 89.2757 39.2458C89.3559 39.2723 89.4224 39.3296 89.4605 39.4052C89.4985 39.4807 89.505 39.5682 89.4785 39.6485C89.452 39.7288 89.3946 39.7953 89.3191 39.8333C89.2436 39.8714 89.1561 39.8778 89.0758 39.8513L89.0628 39.8467L89.0412 39.8377Z" fill="#0C0C0C"/>
<path d="M75.0386 42.742L74.9897 42.539C84.2694 40.2951 83.0303 31.2935 83.0167 31.2008L83.2227 31.1699C83.2366 31.2648 84.5067 40.4524 75.0386 42.742Z" fill="#0C0C0C"/>
<path opacity="0.1" d="M87.1367 49.8563C88.1801 49.8563 89.0259 49.2358 89.0259 48.4704C89.0259 47.705 88.1801 47.0845 87.1367 47.0845C86.0934 47.0845 85.2476 47.705 85.2476 48.4704C85.2476 49.2358 86.0934 49.8563 87.1367 49.8563Z" fill="#0C0C0C"/>
<path opacity="0.1" d="M98.3672 48.1393C98.3694 48.904 99.2146 49.524 100.258 49.5256C100.439 49.5254 100.618 49.5067 100.795 49.4696C100.949 48.5768 101.056 47.713 101.125 46.9097C100.848 46.8045 100.554 46.7521 100.257 46.7553C99.2137 46.7522 98.3672 47.3722 98.3672 48.1393Z" fill="#0C0C0C"/>
<path d="M117.695 97.296C117.222 102.857 114.92 137.547 114.465 144.396H51.7494C51.3954 138.218 49.8031 111.208 48.461 99.128C47.1786 87.6011 44.661 81.8301 46.5067 78.4224C49.5204 72.8528 53.8484 67.8297 62.1466 67.1352C65.595 66.8467 71.9576 68.0772 71.9576 68.0772C71.9576 68.0772 72.3942 76.9108 82.8067 77.4026C96.981 78.0712 96.0387 68.1013 96.1049 68.0772C99.0265 67.0089 108.807 65.2967 113.286 68.2539C121.83 73.8961 118.7 85.5127 117.695 97.296Z" fill="#367CFF"/>
<path d="M97.375 43.0896C97.9227 43.0896 98.3667 42.6456 98.3667 42.0979C98.3667 41.5502 97.9227 41.1062 97.375 41.1062C96.8273 41.1062 96.3833 41.5502 96.3833 42.0979C96.3833 42.6456 96.8273 43.0896 97.375 43.0896Z" fill="#0C0C0C"/>
<path d="M87.6523 43.4141C88.2 43.4141 88.6441 42.9701 88.6441 42.4224C88.6441 41.8747 88.2 41.4307 87.6523 41.4307C87.1046 41.4307 86.6606 41.8747 86.6606 42.4224C86.6606 42.9701 87.1046 43.4141 87.6523 43.4141Z" fill="#0C0C0C"/>
<path d="M117.216 100.905L116.715 109.735L117.132 109.758L117.633 100.928L117.216 100.905Z" fill="#0C0C0C"/>
<path d="M0.199923 71.959C0.362702 71.6991 0.602166 71.4962 0.885237 71.3782C1.16831 71.2603 1.48102 71.2332 1.78016 71.3006C1.78018 71.2734 1.7886 71.2469 1.80426 71.2246C1.81995 71.2078 1.83982 71.1954 1.86185 71.1887C1.88388 71.182 1.90729 71.1813 1.92969 71.1866L0.975677 70.3596C0.689062 70.1223 0.498055 69.7892 0.437968 69.422C0.377882 69.0548 0.45278 68.6782 0.648816 68.362C0.852742 68.0558 1.16318 67.8364 1.51984 67.7463C1.8765 67.6562 2.25392 67.7019 2.57878 67.8745C2.57878 67.8596 2.58836 67.8467 2.59206 67.8321L2.20001 67.4923C1.93109 67.2674 1.74816 66.9564 1.68218 66.6121C1.61619 66.2678 1.67122 65.9112 1.83793 65.6028C1.94644 65.4116 2.09601 65.2469 2.27587 65.1205C2.45573 64.9941 2.66139 64.9091 2.87804 64.8718C3.09468 64.8345 3.31691 64.8457 3.5287 64.9046C3.74049 64.9636 3.93656 65.0687 4.10279 65.2126L5.00768 65.997C5.01108 65.9915 5.00768 65.9843 5.01324 65.9794C5.0188 65.9745 5.02807 65.9735 5.03425 65.968C4.83491 65.6971 4.73355 65.3666 4.7468 65.0305C4.76004 64.6945 4.88712 64.373 5.10716 64.1186C5.63236 63.4251 6.67442 63.6731 7.25956 64.1804L12.5981 68.6468L11.7374 66.8364C11.5626 66.4872 11.5269 66.0846 11.6376 65.7101C11.7482 65.3355 11.9968 65.017 12.3333 64.8187C12.5105 64.7225 12.7055 64.6633 12.9064 64.6449C13.1072 64.6265 13.3097 64.6493 13.5014 64.7117C13.6932 64.7741 13.8702 64.875 14.0217 65.0081C14.1732 65.1413 14.296 65.3039 14.3825 65.486L19.0818 75.3722C19.6332 76.5318 19.7107 77.8607 19.2978 79.0766C18.885 80.2924 18.0143 81.2994 16.8708 81.8834V81.8834C15.5446 82.5608 14.0463 82.8267 12.568 82.647C11.0898 82.4674 9.69882 81.8503 8.57349 80.8751L0.532036 73.9038C0.265611 73.6645 0.0878419 73.3422 0.0275586 72.9892C-0.0327247 72.6362 0.0280138 72.2731 0.199923 71.959V71.959Z" fill="#E98862"/>
<g opacity="0.25">
<path d="M10.2923 70.4122C10.2686 70.439 10.2354 70.4555 10.1998 70.4582C10.1641 70.4608 10.1288 70.4494 10.1014 70.4264L5.02981 66.1723C5.00358 66.1485 4.98758 66.1154 4.98518 66.0801C4.98278 66.0447 4.99415 66.0098 5.01691 65.9827C5.03968 65.9555 5.07207 65.9382 5.1073 65.9344C5.14253 65.9306 5.17787 65.9406 5.20591 65.9622L10.2775 70.2167C10.3053 70.24 10.3228 70.2735 10.3259 70.3097C10.3291 70.3459 10.3178 70.3819 10.2945 70.4098L10.2923 70.4122Z" fill="#0C0C0C"/>
</g>
<g opacity="0.25">
<path d="M8.47792 72.7004C8.45431 72.7273 8.42111 72.7439 8.38542 72.7466C8.34973 72.7493 8.3144 72.738 8.28699 72.7149L2.62594 67.9671C2.59815 67.9437 2.58079 67.9102 2.57766 67.874C2.57453 67.8378 2.58589 67.8019 2.60925 67.774C2.63326 67.7473 2.66654 67.7307 2.70235 67.7276C2.73815 67.7245 2.77379 67.7351 2.80203 67.7573L8.46216 72.5052C8.47595 72.5167 8.48732 72.5309 8.49562 72.5468C8.50392 72.5627 8.50899 72.5802 8.51054 72.5981C8.51209 72.616 8.51009 72.634 8.50465 72.6512C8.49921 72.6683 8.49044 72.6842 8.47885 72.6979L8.47792 72.7004Z" fill="#0C0C0C"/>
</g>
<g opacity="0.25">
<path d="M6.52668 75.1904C6.50303 75.2172 6.46983 75.2338 6.43416 75.2365C6.3985 75.2392 6.36318 75.2279 6.33575 75.2049L1.82087 71.4176C1.79305 71.3943 1.77565 71.3608 1.77249 71.3246C1.76933 71.2885 1.78068 71.2525 1.80403 71.2247C1.82738 71.1969 1.86083 71.1795 1.89701 71.1763C1.93319 71.1731 1.96915 71.1845 1.99697 71.2078L6.51216 74.9949C6.53987 75.0183 6.55718 75.0518 6.56031 75.088C6.56343 75.1241 6.55212 75.1601 6.52884 75.1879L6.52668 75.1904Z" fill="#0C0C0C"/>
</g>
<path d="M21.2878 71.5442L31.8642 98.6671L47.3063 76.9831L63.9404 91.9795L40.121 128.352L39.9356 128.614C38.7985 130.172 37.2837 131.414 35.5338 132.224C33.784 133.034 31.8567 133.385 29.9336 133.244C28.0105 133.104 26.1549 132.476 24.5416 131.419C22.9283 130.363 21.6105 128.914 20.7123 127.208L3.625 81.1819L21.2878 71.5442Z" fill="#367CFF"/>
<path d="M33.4733 102.029C33.509 102.029 33.544 102.02 33.5751 102.002C33.6062 101.985 33.6323 101.96 33.6509 101.929C33.6695 101.899 33.68 101.864 33.6813 101.828C33.6827 101.793 33.6749 101.757 33.6587 101.726L32.0494 98.5722C32.022 98.5272 31.9785 98.4941 31.9277 98.4798C31.877 98.4654 31.8227 98.4709 31.7757 98.4949C31.7288 98.519 31.6926 98.5599 31.6746 98.6095C31.6566 98.6591 31.6581 98.7137 31.6787 98.7622L33.2879 101.915C33.3053 101.95 33.3319 101.978 33.3646 101.998C33.3973 102.018 33.4349 102.029 33.4733 102.029V102.029Z" fill="#0C0C0C"/>
<path d="M49.7414 113.905C49.6803 113.905 49.6215 113.882 49.5766 113.841C49.5317 113.799 49.5041 113.742 49.4992 113.681L48.8387 105.52C48.8335 105.456 48.854 105.392 48.8958 105.343C48.9376 105.294 48.9972 105.263 49.0614 105.258C49.1257 105.253 49.1894 105.273 49.2386 105.315C49.2877 105.357 49.3182 105.417 49.3234 105.481L49.9839 113.642C49.9865 113.674 49.9828 113.706 49.973 113.736C49.9632 113.767 49.9475 113.795 49.9268 113.819C49.9061 113.844 49.8809 113.864 49.8524 113.878C49.824 113.893 49.793 113.902 49.7612 113.904L49.7414 113.905Z" fill="#292A2E"/>
<path d="M222.49 79.3854H221.873V20.6521H158.96V20.0342H222.49V79.3854Z" fill="#0A0A0A"/>
<path d="M219.144 2.63917L200.726 34.5399C200.418 35.0732 200.256 35.6781 200.256 36.2938C200.256 36.9096 200.418 37.5145 200.726 38.0477C201.034 38.581 201.476 39.0238 202.01 39.3317C202.543 39.6396 203.148 39.8018 203.764 39.8018H240.599C241.215 39.8018 241.82 39.6396 242.353 39.3317C242.886 39.0238 243.329 38.581 243.637 38.0477C243.945 37.5145 244.107 36.9096 244.107 36.2938C244.107 35.6781 243.945 35.0732 243.637 34.5399L225.219 2.63917C224.911 2.10598 224.468 1.66322 223.935 1.35539C223.402 1.04756 222.797 0.885498 222.181 0.885498C221.566 0.885498 220.961 1.04756 220.428 1.35539C219.894 1.66322 219.452 2.10598 219.144 2.63917V2.63917Z" fill="white"/>
<path d="M240.599 40.1104H203.764C203.094 40.1105 202.436 39.9342 201.855 39.5992C201.275 39.2642 200.793 38.7824 200.458 38.2021C200.123 37.6218 199.947 36.9636 199.947 36.2936C199.947 35.6235 200.123 34.9653 200.458 34.3851L218.876 2.48462C219.211 1.90425 219.693 1.42229 220.273 1.08719C220.854 0.7521 221.512 0.575684 222.182 0.575684C222.852 0.575684 223.51 0.7521 224.09 1.08719C224.671 1.42229 225.153 1.90425 225.488 2.48462L243.905 34.3854C244.24 34.9656 244.416 35.6238 244.416 36.2938C244.416 36.9638 244.24 37.622 243.905 38.2023C243.57 38.7825 243.088 39.2643 242.508 39.5993C241.927 39.9343 241.269 40.1107 240.599 40.1107L240.599 40.1104ZM222.182 1.19417C221.619 1.19074 221.066 1.3371 220.579 1.61819C220.092 1.89928 219.689 2.30497 219.411 2.79356V2.79356L200.994 34.6943C200.713 35.1806 200.565 35.7322 200.565 36.2938C200.565 36.8554 200.713 37.407 200.993 37.8934C201.274 38.3797 201.678 38.7835 202.164 39.0643C202.651 39.345 203.202 39.4928 203.764 39.4928H240.599C241.161 39.4927 241.713 39.3449 242.199 39.0641C242.685 38.7833 243.089 38.3795 243.37 37.8932C243.65 37.4069 243.798 36.8553 243.798 36.2938C243.798 35.7322 243.65 35.1806 243.37 34.6943L224.952 2.79356C224.674 2.30504 224.27 1.8994 223.784 1.61831C223.297 1.33722 222.744 1.19083 222.182 1.19417V1.19417Z" fill="#292A2E"/>
<path d="M219.739 30.3892C219.758 29.9096 219.918 29.4462 220.199 29.0568C220.48 28.6673 220.868 28.369 221.317 28.1988C221.766 28.0286 222.255 27.9941 222.723 28.0996C223.192 28.2051 223.619 28.4459 223.951 28.7921C224.284 29.1383 224.507 29.5746 224.594 30.0468C224.68 30.5189 224.626 31.0061 224.438 31.4477C224.25 31.8894 223.936 32.2659 223.535 32.5306C223.135 32.7953 222.666 32.9364 222.185 32.9365C221.856 32.9362 221.529 32.8694 221.226 32.74C220.923 32.6107 220.649 32.4214 220.42 32.1835C220.192 31.9457 220.014 31.6642 219.897 31.3558C219.78 31.0475 219.726 30.7188 219.739 30.3892V30.3892ZM220.29 17.7952L220.154 14.1321H224.217L224.081 17.7952L223.516 26.2275H220.855L220.29 17.7952Z" fill="#292A2E"/>
<path d="M248.373 118.661H195.99C194.426 118.661 194.074 116.839 194.575 115.878L197.871 111.48C197.993 111.246 198.177 111.05 198.403 110.913C198.629 110.776 198.888 110.704 199.152 110.704H245.21C245.474 110.704 245.734 110.776 245.959 110.913C246.185 111.05 246.369 111.246 246.492 111.48L249.787 115.878C250.289 116.84 249.937 118.661 248.373 118.661Z" fill="#292A2E"/>
<path d="M198.643 78.8129V107.645C198.643 108.761 199.547 109.666 200.663 109.666H243.699C244.815 109.666 245.719 108.761 245.719 107.645V78.8129C245.719 77.6968 244.815 76.7921 243.699 76.7921H200.663C199.547 76.7921 198.643 77.6968 198.643 78.8129Z" fill="#292A2E"/>
<path d="M244.448 79.2925V107.166C244.448 107.511 244.311 107.842 244.067 108.086C243.822 108.33 243.491 108.467 243.146 108.467H201.143C200.97 108.467 200.798 108.433 200.639 108.367C200.479 108.301 200.334 108.204 200.211 108.081C200.089 107.959 199.992 107.814 199.926 107.654C199.86 107.494 199.826 107.323 199.826 107.15V79.308C199.826 79.135 199.86 78.9638 199.926 78.804C199.992 78.6442 200.089 78.499 200.211 78.3767C200.334 78.2544 200.479 78.1574 200.639 78.0912C200.798 78.025 200.97 77.991 201.143 77.991H243.146C243.491 77.991 243.822 78.1281 244.067 78.3722C244.311 78.6163 244.448 78.9473 244.448 79.2925V79.2925Z" fill="white"/>
<path d="M248.373 117.624H195.99C195.741 117.624 195.497 117.56 195.281 117.438C195.064 117.316 194.883 117.141 194.754 116.928C194.625 116.716 194.554 116.474 194.546 116.226C194.538 115.977 194.594 115.731 194.709 115.511L197.871 110.443C197.993 110.208 198.177 110.012 198.403 109.875C198.629 109.738 198.888 109.666 199.152 109.666H245.21C245.474 109.666 245.734 109.738 245.959 109.875C246.185 110.012 246.369 110.208 246.491 110.443L249.653 115.511C249.768 115.731 249.825 115.977 249.817 116.226C249.809 116.474 249.737 116.716 249.608 116.928C249.479 117.141 249.298 117.316 249.082 117.438C248.865 117.56 248.621 117.624 248.373 117.624Z" fill="#292A2E"/>
<path opacity="0.1" d="M248.373 117.624H195.99C195.741 117.624 195.497 117.56 195.281 117.438C195.064 117.316 194.883 117.141 194.754 116.928C194.625 116.716 194.554 116.474 194.546 116.226C194.538 115.977 194.594 115.731 194.709 115.511L197.871 110.443C197.993 110.208 198.177 110.012 198.403 109.875C198.629 109.738 198.888 109.666 199.152 109.666H245.21C245.474 109.666 245.734 109.738 245.959 109.875C246.185 110.012 246.369 110.208 246.491 110.443L249.653 115.511C249.768 115.731 249.825 115.977 249.817 116.226C249.809 116.474 249.737 116.716 249.608 116.928C249.479 117.141 249.298 117.316 249.082 117.438C248.865 117.56 248.621 117.624 248.373 117.624Z" fill="white"/>
<path d="M220.716 83.8269L211.831 99.2156C211.683 99.4729 211.604 99.7647 211.604 100.062C211.605 100.359 211.683 100.651 211.831 100.908C211.98 101.165 212.193 101.379 212.451 101.527C212.708 101.676 213 101.754 213.297 101.754H231.066C231.363 101.754 231.655 101.676 231.912 101.527C232.169 101.379 232.383 101.165 232.531 100.908C232.68 100.651 232.758 100.359 232.758 100.062C232.758 99.7647 232.68 99.4729 232.531 99.2156L223.647 83.8269C223.498 83.5697 223.284 83.3561 223.027 83.2076C222.77 83.0591 222.478 82.981 222.181 82.981C221.884 82.981 221.592 83.0591 221.335 83.2076C221.078 83.3561 220.864 83.5697 220.716 83.8269V83.8269Z" fill="#367CFF"/>
<path d="M221.003 97.2134C221.012 96.9819 221.089 96.7583 221.225 96.5704C221.36 96.3824 221.548 96.2385 221.764 96.1563C221.981 96.0742 222.217 96.0575 222.443 96.1084C222.669 96.1593 222.875 96.2755 223.035 96.4425C223.196 96.6096 223.304 96.8201 223.345 97.048C223.387 97.2758 223.361 97.5109 223.27 97.724C223.179 97.9371 223.028 98.1188 222.835 98.2465C222.641 98.3742 222.415 98.4423 222.183 98.4423C222.024 98.4422 221.867 98.41 221.72 98.3475C221.574 98.2851 221.442 98.1938 221.332 98.079C221.221 97.9643 221.135 97.8285 221.079 97.6797C221.022 97.531 220.997 97.3724 221.003 97.2134ZM221.269 91.138L221.202 89.3696H223.162L223.098 91.138L222.825 95.2065H221.542L221.269 91.138Z" fill="white"/>
<path d="M170.655 0.308838H125.24V37.7023H170.655V0.308838Z" fill="white"/>
<path d="M170.655 38.0113H125.241C125.159 38.0113 125.08 37.9788 125.022 37.9208C124.964 37.8629 124.932 37.7843 124.932 37.7024V0.308942C124.932 0.227006 124.964 0.148425 125.022 0.0904871C125.08 0.0325492 125.159 0 125.241 0L170.655 0C170.737 0 170.816 0.0325492 170.874 0.0904871C170.931 0.148425 170.964 0.227006 170.964 0.308942V37.7024C170.964 37.7843 170.931 37.8629 170.874 37.9208C170.816 37.9788 170.737 38.0113 170.655 38.0113ZM125.55 37.3934H170.346V0.617884H125.55V37.3934Z" fill="#292A2E"/>
<path d="M168.996 1.91675H135.424V12.0124H168.996V1.91675Z" fill="#367CFF"/>
<g opacity="0.69">
<path d="M168.996 1.91675H135.424V12.0124H168.996V1.91675Z" fill="white"/>
</g>
<path d="M168.996 12.1804H135.425C135.403 12.1804 135.381 12.1761 135.36 12.1677C135.34 12.1592 135.321 12.1469 135.306 12.1312C135.29 12.1156 135.278 12.0971 135.269 12.0767C135.261 12.0563 135.256 12.0344 135.256 12.0123V1.91544C135.256 1.89332 135.261 1.87141 135.269 1.85096C135.278 1.83052 135.29 1.81194 135.306 1.7963C135.321 1.78065 135.34 1.76825 135.36 1.7598C135.381 1.75136 135.403 1.74703 135.425 1.74707H168.996C169.041 1.74707 169.084 1.76481 169.115 1.79639C169.147 1.82796 169.165 1.87079 169.165 1.91544V12.0123C169.165 12.0344 169.16 12.0563 169.152 12.0767C169.143 12.0971 169.131 12.1156 169.115 12.1312C169.1 12.1469 169.081 12.1592 169.061 12.1677C169.04 12.1761 169.018 12.1804 168.996 12.1804ZM135.595 11.8439H168.828V2.08505H135.595V11.8439Z" fill="#292A2E"/>
<path d="M140.524 9.03561C141.668 9.03561 142.595 8.10832 142.595 6.96446C142.595 5.82059 141.668 4.89331 140.524 4.89331C139.38 4.89331 138.453 5.82059 138.453 6.96446C138.453 8.10832 139.38 9.03561 140.524 9.03561Z" fill="white"/>
<path d="M140.524 9.20365C140.081 9.20365 139.648 9.07231 139.28 8.82623C138.912 8.58014 138.625 8.23038 138.455 7.82116C138.286 7.41194 138.241 6.96165 138.328 6.52722C138.414 6.0928 138.627 5.69375 138.941 5.38055C139.254 5.06735 139.653 4.85405 140.087 4.76764C140.522 4.68123 140.972 4.72558 141.381 4.89508C141.79 5.06459 142.14 5.35163 142.386 5.71992C142.632 6.08821 142.764 6.5212 142.764 6.96413C142.763 7.55789 142.527 8.12714 142.107 8.54699C141.687 8.96684 141.118 9.203 140.524 9.20365V9.20365ZM140.524 5.06167C140.148 5.06167 139.78 5.17327 139.467 5.38236C139.154 5.59146 138.91 5.88865 138.766 6.23635C138.622 6.58406 138.585 6.96666 138.658 7.33577C138.731 7.70488 138.913 8.04392 139.179 8.31002C139.445 8.57611 139.784 8.75731 140.153 8.83069C140.522 8.90408 140.905 8.86635 141.253 8.72229C141.6 8.57822 141.897 8.33429 142.106 8.02134C142.315 7.70839 142.427 7.34048 142.427 6.96413C142.426 6.45969 142.226 5.97607 141.869 5.61941C141.512 5.26274 141.029 5.06216 140.524 5.06167V5.06167Z" fill="#292A2E"/>
<path d="M159.599 6.92488H145.267C145.223 6.92488 145.18 6.90714 145.148 6.87557C145.117 6.84399 145.099 6.80116 145.099 6.75651C145.099 6.71185 145.117 6.66903 145.148 6.63745C145.18 6.60587 145.223 6.58813 145.267 6.58813H159.599C159.621 6.58813 159.643 6.59249 159.664 6.60095C159.684 6.60941 159.703 6.62182 159.718 6.63745C159.734 6.65308 159.746 6.67165 159.755 6.69207C159.763 6.7125 159.768 6.7344 159.768 6.75651C159.768 6.77862 159.763 6.80051 159.755 6.82094C159.746 6.84137 159.734 6.85993 159.718 6.87557C159.703 6.8912 159.684 6.9036 159.664 6.91206C159.643 6.92053 159.621 6.92488 159.599 6.92488V6.92488Z" fill="#292A2E"/>
<path d="M163.384 6.92488H162.85C162.805 6.92488 162.763 6.90714 162.731 6.87557C162.699 6.84399 162.682 6.80116 162.682 6.75651C162.682 6.71185 162.699 6.66903 162.731 6.63745C162.763 6.60587 162.805 6.58813 162.85 6.58813H163.384C163.429 6.58813 163.472 6.60587 163.504 6.63745C163.535 6.66903 163.553 6.71185 163.553 6.75651C163.553 6.80116 163.535 6.84399 163.504 6.87557C163.472 6.90714 163.429 6.92488 163.384 6.92488V6.92488Z" fill="#292A2E"/>
<path d="M161.508 6.92488H160.974C160.929 6.92488 160.887 6.90714 160.855 6.87557C160.823 6.84399 160.806 6.80116 160.806 6.75651C160.806 6.71185 160.823 6.66903 160.855 6.63745C160.887 6.60587 160.929 6.58813 160.974 6.58813H161.508C161.53 6.58813 161.552 6.59249 161.573 6.60095C161.593 6.60941 161.612 6.62182 161.627 6.63745C161.643 6.65308 161.655 6.67165 161.664 6.69207C161.672 6.7125 161.677 6.7344 161.677 6.75651C161.677 6.77862 161.672 6.80051 161.664 6.82094C161.655 6.84137 161.643 6.85993 161.627 6.87557C161.612 6.8912 161.593 6.9036 161.573 6.91206C161.552 6.92053 161.53 6.92488 161.508 6.92488V6.92488Z" fill="#292A2E"/>
<path d="M165.388 6.92488H164.854C164.809 6.92488 164.766 6.90714 164.735 6.87557C164.703 6.84399 164.686 6.80116 164.686 6.75651C164.686 6.71185 164.703 6.66903 164.735 6.63745C164.766 6.60587 164.809 6.58813 164.854 6.58813H165.388C165.411 6.58813 165.432 6.59249 165.453 6.60095C165.473 6.60941 165.492 6.62182 165.507 6.63745C165.523 6.65308 165.535 6.67165 165.544 6.69207C165.552 6.7125 165.557 6.7344 165.557 6.75651C165.557 6.77862 165.552 6.80051 165.544 6.82094C165.535 6.84137 165.523 6.85993 165.507 6.87557C165.492 6.8912 165.473 6.9036 165.453 6.91206C165.432 6.92053 165.411 6.92488 165.388 6.92488V6.92488Z" fill="#292A2E"/>
<path d="M168.996 13.7793H135.424V23.8749H168.996V13.7793Z" fill="#367CFF"/>
<g opacity="0.69">
<path d="M168.996 13.7793H135.424V23.8749H168.996V13.7793Z" fill="white"/>
</g>
<path d="M168.996 24.043H135.425C135.403 24.0431 135.381 24.0387 135.36 24.0303C135.34 24.0219 135.321 24.0095 135.306 23.9939C135.29 23.9783 135.278 23.9598 135.269 23.9393C135.261 23.9189 135.256 23.8971 135.256 23.875V13.7787C135.256 13.7566 135.261 13.7347 135.269 13.7142C135.278 13.6938 135.29 13.6752 135.306 13.6596C135.321 13.6439 135.34 13.6315 135.36 13.6231C135.381 13.6146 135.403 13.6103 135.425 13.6104H168.996C169.018 13.6104 169.04 13.6147 169.061 13.6232C169.081 13.6316 169.1 13.644 169.115 13.6597C169.131 13.6753 169.143 13.6939 169.152 13.7143C169.16 13.7347 169.165 13.7566 169.165 13.7787V23.875C169.165 23.8971 169.16 23.9189 169.152 23.9393C169.143 23.9598 169.131 23.9783 169.115 23.9939C169.1 24.0095 169.081 24.0219 169.061 24.0303C169.04 24.0387 169.018 24.0431 168.996 24.043ZM135.595 23.7066H168.828V13.9477H135.595V23.7066Z" fill="#292A2E"/>
<path d="M140.524 20.8984C141.668 20.8984 142.595 19.9711 142.595 18.8273C142.595 17.6834 141.668 16.7561 140.524 16.7561C139.38 16.7561 138.453 17.6834 138.453 18.8273C138.453 19.9711 139.38 20.8984 140.524 20.8984Z" fill="white"/>
<path d="M140.524 21.0664C140.081 21.0664 139.648 20.9351 139.28 20.689C138.912 20.4429 138.625 20.0931 138.455 19.6839C138.286 19.2746 138.241 18.8243 138.328 18.3899C138.414 17.9555 138.627 17.5564 138.941 17.2432C139.254 16.93 139.653 16.7168 140.087 16.6304C140.522 16.544 140.972 16.5884 141.381 16.758C141.791 16.9275 142.14 17.2146 142.386 17.5829C142.632 17.9513 142.764 18.3843 142.764 18.8272C142.763 19.4209 142.527 19.9901 142.107 20.4099C141.687 20.8297 141.118 21.0658 140.524 21.0664V21.0664ZM140.524 16.9245C140.148 16.9245 139.78 17.0361 139.467 17.2451C139.154 17.4542 138.91 17.7514 138.766 18.0991C138.622 18.4468 138.585 18.8293 138.658 19.1984C138.731 19.5675 138.913 19.9066 139.179 20.1727C139.445 20.4388 139.784 20.62 140.153 20.6934C140.522 20.7669 140.905 20.7292 141.252 20.5852C141.6 20.4412 141.897 20.1973 142.106 19.8844C142.315 19.5714 142.427 19.2036 142.427 18.8272C142.426 18.3227 142.226 17.839 141.869 17.4823C141.512 17.1256 141.029 16.925 140.524 16.9245V16.9245Z" fill="#292A2E"/>
<path d="M159.599 18.7877H145.267C145.223 18.7877 145.18 18.7699 145.148 18.7384C145.117 18.7068 145.099 18.664 145.099 18.6193C145.099 18.5746 145.117 18.5318 145.148 18.5002C145.18 18.4687 145.223 18.4509 145.267 18.4509H159.599C159.644 18.4509 159.687 18.4687 159.718 18.5002C159.75 18.5318 159.768 18.5746 159.768 18.6193C159.768 18.664 159.75 18.7068 159.718 18.7384C159.687 18.7699 159.644 18.7877 159.599 18.7877V18.7877Z" fill="#292A2E"/>
<path d="M163.384 18.7877H162.85C162.805 18.7877 162.763 18.7699 162.731 18.7384C162.699 18.7068 162.682 18.664 162.682 18.6193C162.682 18.5746 162.699 18.5318 162.731 18.5002C162.763 18.4687 162.805 18.4509 162.85 18.4509H163.384C163.429 18.4509 163.472 18.4687 163.504 18.5002C163.535 18.5318 163.553 18.5746 163.553 18.6193C163.553 18.664 163.535 18.7068 163.504 18.7384C163.472 18.7699 163.429 18.7877 163.384 18.7877V18.7877Z" fill="#292A2E"/>
<path d="M161.508 18.7877H160.974C160.929 18.7877 160.887 18.7699 160.855 18.7384C160.823 18.7068 160.806 18.664 160.806 18.6193C160.806 18.5746 160.823 18.5318 160.855 18.5002C160.887 18.4687 160.929 18.4509 160.974 18.4509H161.508C161.553 18.4509 161.596 18.4687 161.627 18.5002C161.659 18.5318 161.677 18.5746 161.677 18.6193C161.677 18.664 161.659 18.7068 161.627 18.7384C161.596 18.7699 161.553 18.7877 161.508 18.7877V18.7877Z" fill="#292A2E"/>
<path d="M165.388 18.7877H164.854C164.809 18.7877 164.766 18.7699 164.735 18.7384C164.703 18.7068 164.686 18.664 164.686 18.6193C164.686 18.5746 164.703 18.5318 164.735 18.5002C164.766 18.4687 164.809 18.4509 164.854 18.4509H165.388C165.433 18.4509 165.476 18.4687 165.507 18.5002C165.539 18.5318 165.557 18.5746 165.557 18.6193C165.557 18.664 165.539 18.7068 165.507 18.7384C165.476 18.7699 165.433 18.7877 165.388 18.7877V18.7877Z" fill="#292A2E"/>
<path d="M168.996 25.6423H135.424V35.7379H168.996V25.6423Z" fill="#367CFF"/>
<g opacity="0.69">
<path d="M168.996 25.6423H135.424V35.7379H168.996V25.6423Z" fill="white"/>
</g>
<path d="M168.996 35.9062H135.425C135.403 35.9063 135.381 35.9019 135.36 35.8935C135.34 35.8851 135.321 35.8727 135.306 35.857C135.29 35.8414 135.278 35.8228 135.269 35.8023C135.261 35.7819 135.256 35.76 135.256 35.7379V25.6423C135.256 25.6201 135.261 25.5982 135.269 25.5778C135.278 25.5573 135.29 25.5387 135.306 25.5231C135.321 25.5075 135.34 25.4951 135.36 25.4866C135.381 25.4782 135.403 25.4738 135.425 25.4739H168.996C169.041 25.4739 169.084 25.4916 169.115 25.5232C169.147 25.5548 169.165 25.5976 169.165 25.6423V35.7379C169.165 35.7825 169.147 35.8253 169.115 35.8569C169.084 35.8885 169.041 35.9062 168.996 35.9062ZM135.595 35.5695H168.828V25.8106H135.595V35.5695Z" fill="#292A2E"/>
<path d="M140.524 32.7612C141.668 32.7612 142.595 31.8339 142.595 30.69C142.595 29.5462 141.668 28.6189 140.524 28.6189C139.38 28.6189 138.453 29.5462 138.453 30.69C138.453 31.8339 139.38 32.7612 140.524 32.7612Z" fill="white"/>
<path d="M140.524 32.9292C140.081 32.9292 139.648 32.7979 139.28 32.5518C138.912 32.3057 138.625 31.9559 138.455 31.5467C138.286 31.1374 138.241 30.6871 138.328 30.2527C138.414 29.8183 138.627 29.4192 138.941 29.106C139.254 28.7928 139.653 28.5796 140.087 28.4932C140.522 28.4068 140.972 28.4512 141.381 28.6208C141.791 28.7903 142.14 29.0774 142.386 29.4457C142.632 29.8141 142.764 30.2471 142.764 30.69C142.763 31.2837 142.527 31.8529 142.107 32.2727C141.687 32.6925 141.118 32.9286 140.524 32.9292V32.9292ZM140.524 28.7873C140.148 28.7873 139.78 28.8988 139.467 29.1079C139.154 29.317 138.91 29.6142 138.766 29.9619C138.622 30.3096 138.585 30.6921 138.658 31.0612C138.731 31.4303 138.913 31.7694 139.179 32.0355C139.445 32.3016 139.784 32.4828 140.153 32.5562C140.522 32.6297 140.905 32.592 141.252 32.448C141.6 32.3039 141.897 32.0601 142.106 31.7472C142.315 31.4342 142.427 31.0664 142.427 30.69C142.426 30.1855 142.226 29.7018 141.869 29.3451C141.512 28.9884 141.029 28.7877 140.524 28.7873V28.7873Z" fill="#292A2E"/>
<path d="M159.599 30.6505H145.267C145.223 30.6505 145.18 30.6327 145.148 30.6012C145.117 30.5696 145.099 30.5267 145.099 30.4821C145.099 30.4374 145.117 30.3946 145.148 30.363C145.18 30.3315 145.223 30.3137 145.267 30.3137H159.599C159.644 30.3137 159.687 30.3315 159.718 30.363C159.75 30.3946 159.768 30.4374 159.768 30.4821C159.768 30.5267 159.75 30.5696 159.718 30.6012C159.687 30.6327 159.644 30.6505 159.599 30.6505V30.6505Z" fill="#292A2E"/>
<path d="M163.384 30.6505H162.85C162.805 30.6505 162.763 30.6327 162.731 30.6012C162.699 30.5696 162.682 30.5267 162.682 30.4821C162.682 30.4374 162.699 30.3946 162.731 30.363C162.763 30.3315 162.805 30.3137 162.85 30.3137H163.384C163.429 30.3137 163.472 30.3315 163.504 30.363C163.535 30.3946 163.553 30.4374 163.553 30.4821C163.553 30.5267 163.535 30.5696 163.504 30.6012C163.472 30.6327 163.429 30.6505 163.384 30.6505V30.6505Z" fill="#292A2E"/>
<path d="M161.508 30.6505H160.974C160.929 30.6505 160.887 30.6327 160.855 30.6012C160.823 30.5696 160.806 30.5267 160.806 30.4821C160.806 30.4374 160.823 30.3946 160.855 30.363C160.887 30.3315 160.929 30.3137 160.974 30.3137H161.508C161.553 30.3137 161.596 30.3315 161.627 30.363C161.659 30.3946 161.677 30.4374 161.677 30.4821C161.677 30.5267 161.659 30.5696 161.627 30.6012C161.596 30.6327 161.553 30.6505 161.508 30.6505V30.6505Z" fill="#292A2E"/>
<path d="M165.388 30.6505H164.854C164.809 30.6505 164.766 30.6327 164.735 30.6012C164.703 30.5696 164.686 30.5267 164.686 30.4821C164.686 30.4374 164.703 30.3946 164.735 30.363C164.766 30.3315 164.809 30.3137 164.854 30.3137H165.388C165.433 30.3137 165.476 30.3315 165.507 30.363C165.539 30.3946 165.557 30.4374 165.557 30.4821C165.557 30.5267 165.539 30.5696 165.507 30.6012C165.476 30.6327 165.433 30.6505 165.388 30.6505V30.6505Z" fill="#292A2E"/>
<path d="M133.662 38.0113C133.58 38.0113 133.501 37.9788 133.444 37.9208C133.386 37.8629 133.353 37.7843 133.353 37.7024V0.308942C133.353 0.227006 133.386 0.148425 133.444 0.0904871C133.501 0.0325492 133.58 0 133.662 0C133.744 0 133.822 0.0325492 133.88 0.0904871C133.938 0.148425 133.971 0.227006 133.971 0.308942V37.7024C133.971 37.7843 133.938 37.8629 133.88 37.9208C133.822 37.9788 133.744 38.0113 133.662 38.0113Z" fill="#292A2E"/>
<path d="M180.46 21.7261C181.224 21.7261 181.843 21.107 181.843 20.3433C181.843 19.5796 181.224 18.9604 180.46 18.9604C179.696 18.9604 179.077 19.5796 179.077 20.3433C179.077 21.107 179.696 21.7261 180.46 21.7261Z" fill="white"/>
<path d="M180.46 22.035C180.125 22.0351 179.798 21.9359 179.52 21.75C179.241 21.5641 179.025 21.2998 178.896 20.9906C178.768 20.6814 178.735 20.3412 178.8 20.0129C178.865 19.6847 179.027 19.3831 179.263 19.1465C179.5 18.9098 179.801 18.7487 180.13 18.6834C180.458 18.6181 180.798 18.6516 181.107 18.7797C181.417 18.9078 181.681 19.1248 181.867 19.4031C182.053 19.6814 182.152 20.0086 182.152 20.3433C182.151 20.7918 181.973 21.2218 181.656 21.539C181.339 21.8561 180.908 22.0345 180.46 22.035V22.035ZM180.46 19.2691C180.247 19.269 180.04 19.332 179.863 19.45C179.686 19.568 179.549 19.7357 179.467 19.932C179.386 20.1283 179.365 20.3442 179.406 20.5526C179.447 20.761 179.55 20.9525 179.7 21.1027C179.85 21.253 180.042 21.3553 180.25 21.3968C180.458 21.4383 180.674 21.417 180.871 21.3357C181.067 21.2544 181.235 21.1167 181.353 20.9401C181.471 20.7634 181.534 20.5557 181.534 20.3433C181.534 20.0585 181.42 19.7855 181.219 19.5842C181.018 19.3828 180.745 19.2695 180.46 19.2691V19.2691Z" fill="#292A2E"/>
<path d="M196.494 21.7261C197.257 21.7261 197.876 21.107 197.876 20.3433C197.876 19.5796 197.257 18.9604 196.494 18.9604C195.73 18.9604 195.111 19.5796 195.111 20.3433C195.111 21.107 195.73 21.7261 196.494 21.7261Z" fill="white"/>
<path d="M196.494 22.035C196.159 22.035 195.832 21.9358 195.554 21.7498C195.275 21.5639 195.059 21.2996 194.931 20.9904C194.802 20.6812 194.769 20.341 194.834 20.0127C194.9 19.6845 195.061 19.383 195.297 19.1464C195.534 18.9097 195.836 18.7486 196.164 18.6834C196.492 18.6181 196.832 18.6517 197.142 18.7798C197.451 18.9079 197.715 19.1248 197.901 19.4031C198.087 19.6814 198.186 20.0086 198.186 20.3433C198.185 20.7919 198.007 21.2219 197.69 21.5391C197.373 21.8563 196.942 22.0346 196.494 22.035V22.035ZM196.494 19.2691C196.281 19.2691 196.074 19.3321 195.897 19.4501C195.72 19.5681 195.583 19.7359 195.501 19.9322C195.42 20.1285 195.399 20.3445 195.44 20.5528C195.482 20.7612 195.584 20.9526 195.734 21.1028C195.885 21.2531 196.076 21.3554 196.284 21.3968C196.493 21.4383 196.709 21.417 196.905 21.3357C197.101 21.2544 197.269 21.1167 197.387 20.9401C197.505 20.7634 197.568 20.5557 197.568 20.3433C197.568 20.0584 197.455 19.7854 197.253 19.584C197.052 19.3826 196.779 19.2693 196.494 19.2691V19.2691Z" fill="#292A2E"/>
<path d="M222.182 63.172C224.867 63.172 227.043 60.9954 227.043 58.3105C227.043 55.6255 224.867 53.449 222.182 53.449C219.497 53.449 217.32 55.6255 217.32 58.3105C217.32 60.9954 219.497 63.172 222.182 63.172Z" fill="white"/>
<path d="M222.181 63.4811C221.159 63.4813 220.159 63.1783 219.309 62.6103C218.458 62.0423 217.795 61.2349 217.404 60.2901C217.012 59.3453 216.91 58.3057 217.109 57.3026C217.308 56.2996 217.801 55.3782 218.524 54.655C219.247 53.9317 220.168 53.4392 221.171 53.2396C222.174 53.04 223.214 53.1423 224.159 53.5336C225.103 53.9249 225.911 54.5876 226.479 55.4379C227.047 56.2882 227.351 57.2879 227.351 58.3106C227.349 59.6812 226.804 60.9952 225.835 61.9645C224.866 62.9338 223.552 63.4792 222.181 63.4811V63.4811ZM222.181 53.758C221.281 53.7578 220.401 54.0246 219.652 54.5247C218.903 55.0248 218.319 55.7357 217.975 56.5675C217.63 57.3994 217.539 58.3148 217.715 59.198C217.89 60.0812 218.324 60.8925 218.961 61.5293C219.597 62.1661 220.408 62.5998 221.292 62.7756C222.175 62.9514 223.09 62.8613 223.922 62.5167C224.754 62.1722 225.465 61.5887 225.965 60.84C226.466 60.0913 226.733 59.2111 226.733 58.3106C226.731 57.1038 226.251 55.9468 225.398 55.0934C224.545 54.24 223.388 53.7597 222.181 53.758V53.758Z" fill="#292A2E"/>
<path d="M224.182 60.6208C224.101 60.6208 224.022 60.5882 223.964 60.5303L219.962 56.528C219.906 56.4697 219.875 56.3917 219.875 56.3107C219.876 56.2296 219.908 56.1522 219.966 56.0949C220.023 56.0376 220.1 56.0051 220.182 56.0044C220.263 56.0037 220.341 56.0348 220.399 56.0911L224.401 60.0935C224.444 60.1367 224.473 60.1917 224.485 60.2516C224.497 60.3116 224.491 60.3737 224.468 60.4301C224.444 60.4865 224.405 60.5348 224.354 60.5687C224.303 60.6027 224.244 60.6208 224.182 60.6208Z" fill="#0A0A0A"/>
<path d="M220.18 60.6208C220.119 60.6208 220.06 60.6027 220.009 60.5687C219.958 60.5348 219.918 60.4865 219.895 60.4301C219.872 60.3737 219.866 60.3116 219.878 60.2516C219.889 60.1917 219.919 60.1367 219.962 60.0935L223.964 56.0911C224.022 56.0348 224.1 56.0037 224.181 56.0044C224.262 56.0051 224.34 56.0376 224.397 56.0949C224.454 56.1522 224.487 56.2296 224.488 56.3107C224.488 56.3917 224.457 56.4697 224.401 56.528L220.4 60.5303C220.371 60.5591 220.337 60.5819 220.299 60.5974C220.261 60.6129 220.221 60.6209 220.18 60.6208V60.6208Z" fill="#0A0A0A"/>
<path d="M124.87 144.612H46.0684C46.0384 144.615 46.008 144.611 45.9793 144.602C45.9506 144.592 45.9242 144.577 45.9017 144.557C45.8793 144.537 45.8614 144.512 45.8492 144.484C45.8369 144.457 45.8306 144.427 45.8306 144.396C45.8306 144.366 45.8369 144.336 45.8492 144.309C45.8614 144.281 45.8793 144.256 45.9017 144.236C45.9242 144.216 45.9506 144.2 45.9793 144.191C46.008 144.182 46.0384 144.178 46.0684 144.181H124.87C124.923 144.187 124.972 144.212 125.008 144.251C125.044 144.291 125.064 144.343 125.064 144.396C125.064 144.45 125.044 144.502 125.008 144.542C124.972 144.581 124.923 144.606 124.87 144.612V144.612Z" fill="#292A2E"/>
</g>
<defs>
<clipPath id="clip0_393_7111">
<rect width="250" height="144.611" fill="white"/>
</clipPath>
</defs>
</svg>
