<svg width="205" height="133" viewBox="0 0 205 133" fill="none" xmlns="http://www.w3.org/2000/svg">
<path d="M14.1427 132.802C6.08604 132.802 -0.341845 125.59 0.0141018 116.952C0.479522 105.658 5.86063 89.711 27.0717 73.7751C52.9377 54.3409 41.272 -1.61504 96.2299 2.24595C151.188 6.10693 145.948 47.458 179.647 66.4114C201.098 78.476 204.999 102.082 205 117.648C205 126.021 198.661 132.802 190.858 132.802L14.1427 132.802Z" fill="#F3F5FD"/>
<path d="M21.1118 131.477C16.9819 130.197 12.9749 128.525 9.3237 123.844C8.57448 122.884 7.87051 121.655 8.28109 120.507C8.58991 119.643 9.48385 119.089 10.3922 118.948C10.7305 118.899 11.0734 118.89 11.4139 118.92C11.4158 118.92 11.4175 118.921 11.4179 118.92C11.9414 118.974 12.4589 119.075 12.9639 119.224L13.1079 119.265C15.5177 119.95 17.8131 120.987 19.9201 122.342C20.1111 122.464 20.3375 122.517 20.5627 122.494C20.7879 122.47 20.9986 122.371 21.1605 122.213C21.3223 122.055 21.4259 121.847 21.4544 121.622C21.4829 121.397 21.4345 121.17 21.3172 120.976C21.1023 120.625 20.8522 120.297 20.5707 119.996C20.1556 119.562 19.7009 119.168 19.2124 118.818C18.5631 118.345 17.8702 117.922 17.1925 117.489C14.6722 115.884 12.2846 114.08 10.0525 112.094C8.45938 110.674 6.9013 109.099 6.14416 107.104C5.79635 106.187 5.63808 105.129 6.05304 104.24C6.73782 102.78 8.67749 102.371 10.2637 102.674C13.0433 103.206 15.2639 105.244 17.2329 107.275C18.8659 108.961 20.6956 110.829 23.0415 110.933C23.4414 110.971 23.8435 110.89 24.198 110.701C24.8673 110.296 25.0391 109.357 24.8008 108.611C24.5625 107.865 24.0103 107.27 23.4775 106.697C20.3808 103.375 17.3334 99.919 15.3224 95.8482C13.3115 91.7775 12.4211 86.9713 13.8184 82.6488C14.2281 81.3858 14.8437 80.1555 15.8039 79.238C16.7642 78.3205 18.111 77.7444 19.4293 77.9202C21.2253 78.1566 22.578 79.6718 23.4879 81.2373C26.6158 86.6076 26.4246 93.1875 27.3056 99.3389C27.552 101.061 27.9103 102.827 28.9362 104.245C29.0308 104.381 29.1534 104.496 29.2959 104.581C30.14 105.069 30.8976 104.084 31.2143 103.247C32.4654 99.9382 32.7782 96.1539 35.0184 93.4152C35.8733 92.3726 37.0827 91.5014 38.4308 91.51C40.0781 91.5212 41.4867 92.8962 41.9669 94.471C42.4471 96.0457 42.16 97.7564 41.6454 99.3201C40.6899 102.22 38.9773 104.825 36.9595 107.115C35.896 108.324 34.6926 109.545 34.3738 111.122C34.2761 111.658 34.317 112.21 34.4927 112.726C34.6683 113.242 34.9729 113.704 35.3774 114.069C35.5666 114.234 35.7869 114.359 36.0253 114.437C36.2637 114.515 36.5152 114.544 36.7651 114.523C37.3054 114.473 37.7944 114.198 38.2655 113.93C38.4631 113.817 38.6616 113.703 38.8612 113.591C39.648 113.143 40.4349 112.695 41.2219 112.246C43.2226 111.104 45.6386 109.938 47.7227 110.921C48.7862 111.423 49.4829 112.411 49.8107 113.545C50.104 114.574 50.104 115.665 49.8107 116.694C49.1899 118.834 45.2772 124.789 43.6632 126.325C41.7788 128.119 35.2427 135.857 21.1118 131.477Z" fill="#8DDBE0"/>
<path d="M118.952 7.03271H48.6982V131.015H118.952V7.03271Z" fill="white"/>
<path d="M132.479 46.4171C132.479 46.4171 134.156 45.6966 134.156 41.2912L137.526 40.9478C137.526 40.9478 136.831 44.8406 138.409 46.2234L132.479 46.4171Z" fill="#E98862"/>
<path d="M132.411 39.4401C132.532 40.7866 133.154 42.1032 134.289 42.6282C135.525 43.2395 136.89 43.5393 138.268 43.5015C141.927 43.5015 141.886 35.1779 140.292 33.431C138.698 31.684 133.55 32.2855 132.714 34.9202C132.281 36.2827 132.296 38.1594 132.411 39.4401Z" fill="#E98862"/>
<path d="M140.099 36.8121C140.809 36.8065 141.518 36.7467 142.219 36.6334C142.219 36.6334 142.004 31.2279 136.264 31.5361C135.518 31.5021 134.771 31.5462 134.035 31.6677C132.31 31.9321 129.863 33.6962 129.468 38.111C129.287 40.1364 128.589 42.0458 128.056 43.2544C127.993 43.3963 127.967 43.5517 127.979 43.7065C127.991 43.8613 128.042 44.0105 128.127 44.1407C128.211 44.2709 128.327 44.3779 128.463 44.4521C128.6 44.5262 128.753 44.5651 128.908 44.5652L141.206 44.4678C141.352 44.468 141.495 44.4341 141.625 44.3688C141.755 44.3036 141.868 44.2088 141.955 44.092C142.042 43.9753 142.1 43.8399 142.125 43.6966C142.15 43.5533 142.141 43.4062 142.099 43.2669C141.431 41.051 140.207 39.6933 140.099 36.8121Z" fill="#0F1011"/>
<path d="M160.89 60.9704C161.512 60.9704 163.589 60.6424 163.738 61.1701C163.827 61.4865 162.278 61.8601 162.278 61.8601" fill="#E98862"/>
<path d="M160.564 63.4616C160.564 63.4616 164.758 65.1848 167.168 63.2193C167.229 63.1692 167.274 63.1017 167.296 63.0257C167.319 62.9498 167.318 62.8688 167.293 62.7935C167.269 62.7181 167.222 62.6519 167.16 62.6034C167.097 62.5549 167.021 62.5264 166.942 62.5216C165.318 62.4261 161.981 62.0985 162.37 61.0273H159.751" fill="#E98862"/>
<path d="M149.547 59.8702C150.166 59.8106 152.202 59.2845 152.401 59.7954C152.52 60.1019 151.014 60.6226 151.014 60.6226" fill="#E98862"/>
<path d="M149.462 62.3813C149.462 62.3813 153.802 63.694 156.012 61.5055C156.068 61.4497 156.106 61.3782 156.121 61.3004C156.136 61.2226 156.127 61.1421 156.096 61.0694C156.064 60.9967 156.011 60.9352 155.944 60.8929C155.877 60.8507 155.799 60.8297 155.72 60.8326C154.093 60.8935 150.74 60.8879 151.026 59.7842L148.418 60.0359" fill="#E98862"/>
<path d="M127.761 65.1236C127.454 65.1236 127.149 65.0612 126.866 64.9401C126.584 64.8191 126.328 64.6419 126.116 64.4193C125.904 64.1968 125.739 63.9334 125.632 63.6453C125.524 63.3571 125.476 63.0501 125.491 62.7429L126.106 49.728L130.648 49.9428L130.151 60.4417L149.94 59.349L150.19 63.8887L127.885 65.1203C127.846 65.1215 127.803 65.1236 127.761 65.1236Z" fill="#367CFF"/>
<path d="M117.566 130.196H68.7716V14.9895L117.566 8.73389V130.196Z" fill="#DEE8F5"/>
<path d="M117.566 8.73417V130.196H50.0046V8.73417H117.566ZM120.171 6.12891H47.3994V132.802H120.171V6.12891Z" fill="#C1D8ED"/>
<path d="M74.9265 72.5235C76.6156 72.5235 77.9849 71.1542 77.9849 69.4651C77.9849 67.776 76.6156 66.4067 74.9265 66.4067C73.2374 66.4067 71.8682 67.776 71.8682 69.4651C71.8682 71.1542 73.2374 72.5235 74.9265 72.5235Z" fill="white"/>
<path d="M146.665 130.498L142.316 129.982C142.512 128.336 142.733 126.359 142.748 126.035C142.748 126.056 142.748 126.072 142.748 126.086H147.127C147.127 126.217 147.127 126.616 146.665 130.498Z" fill="#E98862"/>
<path d="M129.217 131.022L124.838 131.008C124.838 131.008 124.853 126.486 124.853 126.085H129.232C129.232 126.487 129.217 131.022 129.217 131.022Z" fill="#E98862"/>
<path d="M140.566 129.116L148.282 128.985C147.919 119.803 147.897 110.172 147.784 100.969C146.278 91.0479 145.485 80.1541 143.626 70.305L127.476 69.4648C127.476 69.4648 127.118 76.0041 126.976 78.595C126.153 93.4824 124.652 114.45 123.709 128.866L131.397 129.516C132.782 115.381 134.926 94.7852 136.245 79.9364C137.759 87.1656 138.788 94.6511 140.105 101.819C140.368 110.791 140.591 120.171 140.566 129.116Z" fill="#262626"/>
<path d="M134.54 132.716C134.658 132.715 134.774 132.69 134.882 132.643C134.99 132.595 135.087 132.526 135.166 132.439C135.246 132.353 135.307 132.251 135.346 132.139C135.384 132.028 135.399 131.91 135.39 131.793C135.378 131.63 135.319 131.474 135.22 131.344C135.122 131.213 134.989 131.114 134.836 131.057L129.739 129.35C129.64 129.317 129.536 129.306 129.432 129.317C129.329 129.329 129.229 129.363 129.14 129.416C128.439 129.902 127.601 130.151 126.749 130.125C126.085 130.078 125.448 129.845 124.91 129.453C124.862 129.414 124.805 129.39 124.744 129.382C124.684 129.375 124.622 129.385 124.567 129.411C124.511 129.437 124.465 129.479 124.432 129.531C124.4 129.582 124.382 129.642 124.383 129.703V132.196C124.383 132.269 124.397 132.342 124.425 132.41C124.454 132.478 124.495 132.539 124.547 132.591C124.599 132.643 124.661 132.684 124.729 132.712C124.797 132.74 124.87 132.754 124.943 132.754L134.54 132.716Z" fill="#C1D8ED"/>
<path d="M152 132.716C152.118 132.715 152.235 132.69 152.342 132.643C152.45 132.595 152.547 132.526 152.627 132.439C152.706 132.353 152.767 132.251 152.806 132.139C152.844 132.028 152.86 131.91 152.85 131.793C152.838 131.63 152.779 131.474 152.681 131.344C152.583 131.213 152.449 131.114 152.296 131.057L147.199 129.35C147.101 129.317 146.996 129.306 146.893 129.317C146.789 129.329 146.69 129.363 146.6 129.416C145.9 129.902 145.062 130.151 144.209 130.125C143.545 130.078 142.908 129.845 142.37 129.453C142.322 129.414 142.265 129.39 142.204 129.382C142.144 129.375 142.082 129.385 142.027 129.411C141.972 129.437 141.925 129.479 141.892 129.531C141.86 129.582 141.843 129.642 141.843 129.703V132.196C141.843 132.269 141.857 132.342 141.886 132.41C141.914 132.478 141.955 132.539 142.007 132.591C142.059 132.643 142.121 132.684 142.189 132.712C142.257 132.74 142.33 132.754 142.403 132.754L152 132.716Z" fill="#C1D8ED"/>
<path d="M149.232 60.073L144.182 49.16C143.763 47.2645 142.586 45.9565 139.844 45.8391C139.007 45.8032 134.922 45.7974 131.931 45.7974C129.922 45.7974 128.272 46.414 127.319 47.3665C124.035 50.6509 128.066 56.2476 128.066 60.6285C128.066 65.0093 126.085 66.9713 126.231 69.2195C126.461 72.7529 143.628 71.918 144.503 69.911C145.403 67.8412 143.576 66.5659 143.656 59.7956C143.66 59.3953 143.68 58.9845 143.708 58.567L145.832 63.1545C146.004 63.5266 146.277 63.8428 146.62 64.0672C146.963 64.2916 147.363 64.4151 147.773 64.4238L161.158 64.7055L161.25 60.3265L149.232 60.073Z" fill="#367CFF"/>
<path d="M180.081 115.319C181.124 114.978 182.194 115.361 183.218 116.139C181.869 112.734 181.313 109.658 183.618 109.52C185.231 109.423 186.467 110.661 187.406 112.42C187.736 109.327 188.587 107.019 190.496 107.784C192.59 108.624 192.909 111.502 192.591 114.513C193.514 112.975 194.508 112.118 195.41 113.02C198.103 115.712 191.493 123.301 191.493 123.301H189.852L188.915 124.318C189.105 124.719 189.209 124.958 189.209 124.958L188.019 127.379C188.019 127.379 175.754 116.735 180.081 115.319Z" fill="#8DDBE0"/>
<path d="M183.024 132.801H192.314L193.869 121.957H181.469L183.024 132.801Z" fill="#C1D8ED"/>
<path d="M190.067 17.2458C190.054 17.2458 190.04 17.2458 190.026 17.2446C189.931 17.2393 189.839 17.2155 189.753 17.1744C189.668 17.1334 189.591 17.0759 189.528 17.0053C189.465 16.9347 189.417 16.8523 189.385 16.7629C189.354 16.6735 189.341 16.5789 189.346 16.4843C189.651 11.0388 187.498 9.04842 187.477 9.02903C187.404 8.96644 187.345 8.89009 187.303 8.80441C187.26 8.71874 187.235 8.62546 187.229 8.53001C187.223 8.43455 187.236 8.33883 187.267 8.24842C187.298 8.158 187.347 8.07471 187.411 8.00337C187.475 7.93204 187.552 7.8741 187.638 7.83292C187.724 7.79175 187.818 7.76816 187.914 7.76354C188.009 7.75891 188.105 7.77335 188.195 7.80599C188.285 7.83863 188.367 7.88884 188.437 7.95369C188.547 8.0519 191.13 10.4334 190.786 16.5656C190.775 16.7492 190.695 16.9219 190.562 17.0483C190.428 17.1748 190.251 17.2454 190.067 17.2458Z" fill="#D7E8F4"/>
<path d="M189.749 1.17969H188.496V4.47808H189.749V1.17969Z" fill="#C1D8ED"/>
<path d="M189.122 1.67026C191.919 1.67026 194.186 1.29636 194.186 0.835129C194.186 0.3739 191.919 0 189.122 0C186.326 0 184.059 0.3739 184.059 0.835129C184.059 1.29636 186.326 1.67026 189.122 1.67026Z" fill="#D7E8F4"/>
<path d="M168.347 1.17969H167.094V4.47808H168.347V1.17969Z" fill="#C1D8ED"/>
<path d="M167.72 1.67026C170.517 1.67026 172.784 1.29636 172.784 0.835129C172.784 0.3739 170.517 0 167.72 0C164.924 0 162.657 0.3739 162.657 0.835129C162.657 1.29636 164.924 1.67026 167.72 1.67026Z" fill="#D7E8F4"/>
<path d="M166.598 17.1636C166.414 17.1634 166.237 17.0928 166.103 16.9663C165.969 16.8397 165.889 16.6668 165.878 16.483C165.534 10.351 168.117 7.96946 168.227 7.87104C168.369 7.74663 168.555 7.68329 168.744 7.69466C168.933 7.70604 169.11 7.79123 169.237 7.93185C169.363 8.07247 169.43 8.25725 169.421 8.44634C169.413 8.63544 169.331 8.81368 169.192 8.94263C169.148 8.98433 167.018 11.0558 167.318 16.4019C167.329 16.5928 167.264 16.7802 167.136 16.9228C167.009 17.0654 166.83 17.1516 166.639 17.1623C166.625 17.163 166.611 17.1636 166.598 17.1636Z" fill="#D7E8F4"/>
<path d="M193.196 2.70557H163.647C162.986 2.70557 162.45 3.24154 162.45 3.90269V8.43136C162.45 9.09251 162.986 9.62848 163.647 9.62848H193.196C193.857 9.62848 194.393 9.09251 194.393 8.43136V3.90269C194.393 3.24154 193.857 2.70557 193.196 2.70557Z" fill="#C1D8ED"/>
<path d="M178.421 8.72434C179.834 8.72434 180.979 7.57921 180.979 6.16661C180.979 4.75402 179.834 3.60889 178.421 3.60889C177.009 3.60889 175.864 4.75402 175.864 6.16661C175.864 7.57921 177.009 8.72434 178.421 8.72434Z" fill="white"/>
<path d="M178.421 7.7134C179.276 7.7134 179.968 7.02105 179.968 6.167C179.968 5.31295 179.276 4.62061 178.421 4.62061C177.567 4.62061 176.875 5.31295 176.875 6.167C176.875 7.02105 177.567 7.7134 178.421 7.7134Z" fill="#367CFF"/>
<path d="M190.257 17.6313H166.526V37.9922H190.257V17.6313Z" fill="#0CBC8B"/>
<g opacity="0.19">
<path d="M190.257 17.6313H166.526V21.8629H190.257V17.6313Z" fill="black"/>
</g>
<path d="M190.828 14.5005H165.955V18.7068H190.828V14.5005Z" fill="#0CBC8B"/>
</svg>
